<svg width="160" height="56" viewBox="0 0 161 56" fill="none" xmlns="http://www.w3.org/2000/svg">
<rect x="0.568359" y="0.5" width="160" height="55" rx="9.5" fill="#2A3647"/>
<rect x="0.568359" y="0.5" width="160" height="55" rx="9.5" stroke="#2A3647"/>
<path d="M20.0282 36H16.568L21.8404 20.7273H26.0016L31.2665 36H27.8063L23.9806 24.2173H23.8613L20.0282 36ZM19.812 29.9968H27.9853V32.5174H19.812V29.9968ZM36.7328 36.1864C35.8627 36.1864 35.0748 35.9627 34.3688 35.5153C33.6678 35.0629 33.111 34.3991 32.6983 33.5241C32.2907 32.6442 32.0868 31.5653 32.0868 30.2876C32.0868 28.9751 32.2981 27.8839 32.7207 27.0138C33.1433 26.1388 33.7051 25.4851 34.4061 25.0526C35.112 24.6151 35.8851 24.3963 36.7253 24.3963C37.3667 24.3963 37.9011 24.5057 38.3287 24.7244C38.7612 24.9382 39.1092 25.2067 39.3727 25.5298C39.6412 25.848 39.845 26.1612 39.9842 26.4695H40.0811V20.7273H43.2505V36H40.1184V34.1655H39.9842C39.835 34.4837 39.6238 34.7994 39.3503 35.1126C39.0819 35.4208 38.7314 35.6768 38.2988 35.8807C37.8713 36.0845 37.3493 36.1864 36.7328 36.1864ZM37.7395 33.6584C38.2516 33.6584 38.6841 33.5192 39.0371 33.2408C39.3951 32.9574 39.6685 32.5621 39.8574 32.055C40.0513 31.5479 40.1483 30.9538 40.1483 30.2727C40.1483 29.5916 40.0538 29 39.8649 28.4979C39.676 27.9957 39.4025 27.608 39.0446 27.3345C38.6866 27.0611 38.2516 26.9244 37.7395 26.9244C37.2175 26.9244 36.7775 27.0661 36.4196 27.3494C36.0616 27.6328 35.7907 28.0256 35.6067 28.5277C35.4228 29.0298 35.3308 29.6115 35.3308 30.2727C35.3308 30.9389 35.4228 31.5281 35.6067 32.0401C35.7956 32.5472 36.0666 32.945 36.4196 33.2333C36.7775 33.5167 37.2175 33.6584 37.7395 33.6584ZM50.0834 36.1864C49.2133 36.1864 48.4253 35.9627 47.7194 35.5153C47.0184 35.0629 46.4616 34.3991 46.0489 33.5241C45.6412 32.6442 45.4374 31.5653 45.4374 30.2876C45.4374 28.9751 45.6487 27.8839 46.0713 27.0138C46.4939 26.1388 47.0557 25.4851 47.7567 25.0526C48.4626 24.6151 49.2357 24.3963 50.0759 24.3963C50.7172 24.3963 51.2517 24.5057 51.6792 24.7244C52.1118 24.9382 52.4598 25.2067 52.7233 25.5298C52.9917 25.848 53.1956 26.1612 53.3348 26.4695H53.4317V20.7273H56.6011V36H53.469V34.1655H53.3348C53.1856 34.4837 52.9743 34.7994 52.7009 35.1126C52.4324 35.4208 52.0819 35.6768 51.6494 35.8807C51.2219 36.0845 50.6998 36.1864 50.0834 36.1864ZM51.0901 33.6584C51.6022 33.6584 52.0347 33.5192 52.3877 33.2408C52.7456 32.9574 53.0191 32.5621 53.208 32.055C53.4019 31.5479 53.4988 30.9538 53.4988 30.2727C53.4988 29.5916 53.4044 29 53.2155 28.4979C53.0265 27.9957 52.7531 27.608 52.3952 27.3345C52.0372 27.0611 51.6022 26.9244 51.0901 26.9244C50.5681 26.9244 50.1281 27.0661 49.7702 27.3494C49.4122 27.6328 49.1412 28.0256 48.9573 28.5277C48.7733 29.0298 48.6814 29.6115 48.6814 30.2727C48.6814 30.9389 48.7733 31.5281 48.9573 32.0401C49.1462 32.5472 49.4172 32.945 49.7702 33.2333C50.1281 33.5167 50.5681 33.6584 51.0901 33.6584ZM70.1661 24.5455V26.9318H63.268V24.5455H70.1661ZM64.8341 21.8011H68.0109V32.4801C68.0109 32.7734 68.0557 33.0021 68.1452 33.1662C68.2346 33.3253 68.3589 33.4371 68.518 33.5018C68.6821 33.5664 68.871 33.5987 69.0848 33.5987C69.2339 33.5987 69.3831 33.5863 69.5322 33.5614C69.6814 33.5316 69.7957 33.5092 69.8753 33.4943L70.3749 35.8583C70.2158 35.908 69.9921 35.9652 69.7037 36.0298C69.4154 36.0994 69.0649 36.1417 68.6523 36.1566C67.8866 36.1864 67.2155 36.0845 66.6388 35.8509C66.067 35.6172 65.6221 35.2543 65.3039 34.7621C64.9857 34.2699 64.8291 33.6484 64.8341 32.8977V21.8011ZM75.5019 36.2163C74.771 36.2163 74.1198 36.0895 73.548 35.8359C72.9763 35.5774 72.5239 35.1971 72.1908 34.695C71.8627 34.1879 71.6986 33.5565 71.6986 32.8008C71.6986 32.1644 71.8154 31.63 72.0491 31.1974C72.2828 30.7649 72.6009 30.4169 73.0036 30.1534C73.4063 29.8899 73.8637 29.6911 74.3758 29.5568C74.8928 29.4226 75.4347 29.3281 76.0015 29.2734C76.6677 29.2038 77.2046 29.1392 77.6123 29.0795C78.02 29.0149 78.3158 28.9205 78.4997 28.7962C78.6837 28.6719 78.7757 28.4879 78.7757 28.2443V28.1996C78.7757 27.7273 78.6265 27.3619 78.3282 27.1033C78.0349 26.8448 77.6173 26.7156 77.0754 26.7156C76.5036 26.7156 76.0487 26.8423 75.7107 27.0959C75.3726 27.3445 75.1489 27.6577 75.0395 28.0355L72.1013 27.7969C72.2504 27.1009 72.5438 26.4993 72.9813 25.9922C73.4188 25.4801 73.983 25.0874 74.6741 24.8139C75.3701 24.5355 76.1755 24.3963 77.0903 24.3963C77.7267 24.3963 78.3357 24.4709 78.9173 24.62C79.504 24.7692 80.0235 25.0004 80.4759 25.3136C80.9333 25.6268 81.2938 26.0295 81.5573 26.5217C81.8208 27.0089 81.9525 27.593 81.9525 28.2741V36H78.9397V34.4116H78.8502C78.6663 34.7695 78.4202 35.0852 78.1119 35.3587C77.8037 35.6271 77.4333 35.8384 77.0008 35.9925C76.5683 36.1417 76.0686 36.2163 75.5019 36.2163ZM76.4117 34.0238C76.879 34.0238 77.2916 33.9318 77.6496 33.7479C78.0075 33.5589 78.2884 33.3054 78.4923 32.9872C78.6961 32.669 78.798 32.3086 78.798 31.9059V30.6903C78.6986 30.755 78.5619 30.8146 78.3879 30.8693C78.2188 30.919 78.0274 30.9663 77.8137 31.011C77.5999 31.0508 77.3861 31.0881 77.1723 31.1229C76.9585 31.1527 76.7646 31.18 76.5906 31.2049C76.2178 31.2596 75.8921 31.3466 75.6137 31.4659C75.3353 31.5852 75.1191 31.7468 74.9649 31.9506C74.8108 32.1495 74.7338 32.3981 74.7338 32.6964C74.7338 33.1289 74.8904 33.4595 75.2036 33.6882C75.5218 33.9119 75.9244 34.0238 76.4117 34.0238ZM93.9477 27.8118L91.0393 27.9908C90.9896 27.7422 90.8827 27.5185 90.7187 27.3196C90.5546 27.1158 90.3383 26.9542 90.0699 26.8349C89.8064 26.7106 89.4907 26.6484 89.1228 26.6484C88.6306 26.6484 88.2155 26.7528 87.8774 26.9616C87.5393 27.1655 87.3703 27.4389 87.3703 27.782C87.3703 28.0554 87.4797 28.2866 87.6984 28.4755C87.9172 28.6644 88.2925 28.8161 88.8245 28.9304L90.8976 29.348C92.0113 29.5767 92.8415 29.9446 93.3884 30.4517C93.9353 30.9588 94.2087 31.625 94.2087 32.4503C94.2087 33.201 93.9875 33.8597 93.545 34.4265C93.1075 34.9933 92.5059 35.4357 91.7403 35.7539C90.9797 36.0671 90.1022 36.2237 89.1079 36.2237C87.5915 36.2237 86.3834 35.908 85.4836 35.2766C84.5887 34.6403 84.0642 33.7752 83.9101 32.6815L87.0347 32.5174C87.1292 32.9798 87.3579 33.3327 87.7208 33.5763C88.0837 33.815 88.5486 33.9343 89.1153 33.9343C89.6721 33.9343 90.1196 33.8274 90.4577 33.6136C90.8007 33.3949 90.9747 33.114 90.9797 32.771C90.9747 32.4826 90.8529 32.2464 90.6143 32.0625C90.3756 31.8736 90.0077 31.7294 89.5106 31.63L87.5269 31.2347C86.4083 31.011 85.5756 30.6232 85.0287 30.0714C84.4868 29.5195 84.2158 28.8161 84.2158 27.9609C84.2158 27.2251 84.4147 26.5913 84.8124 26.0593C85.2151 25.5273 85.7794 25.1172 86.5052 24.8288C87.2361 24.5405 88.0912 24.3963 89.0706 24.3963C90.5173 24.3963 91.6558 24.7021 92.4861 25.3136C93.3213 25.9251 93.8085 26.7578 93.9477 27.8118ZM99.0877 32.7038L99.0952 28.8931H99.5575L103.227 24.5455H106.873L101.944 30.3026H101.191L99.0877 32.7038ZM96.2092 36V20.7273H99.386V36H96.2092ZM103.368 36L99.9975 31.011L102.115 28.7663L107.089 36H103.368Z" fill="white"/>
<mask id="mask0_170_1476" style="mask-type:alpha" maskUnits="userSpaceOnUse" x="112" y="12" width="33" height="32">
<rect x="112.068" y="12" width="32" height="32" fill="#D9D9D9"/>
</mask>
<g mask="url(#mask0_170_1476)">
<path d="M126.734 29.3327H118.734V26.666H126.734V18.666H129.401V26.666H137.401V29.3327H129.401V37.3327H126.734V29.3327Z" fill="white"/>
</g>
</svg>
