<svg width="169" height="64" viewBox="0 0 169 64" fill="none" xmlns="http://www.w3.org/2000/svg">
<g filter="url(#filter0_d_170_1482)">
<rect x="4.06836" width="160" height="56" rx="10" fill="#29ABE2" shape-rendering="crispEdges"/>
<path d="M24.0282 36H20.568L25.8404 20.7273H30.0016L35.2665 36H31.8063L27.9806 24.2173H27.8613L24.0282 36ZM23.812 29.9968H31.9853V32.5174H23.812V29.9968ZM40.7328 36.1864C39.8627 36.1864 39.0748 35.9627 38.3688 35.5153C37.6678 35.0629 37.111 34.3991 36.6983 33.5241C36.2907 32.6442 36.0868 31.5653 36.0868 30.2876C36.0868 28.9751 36.2981 27.8839 36.7207 27.0138C37.1433 26.1388 37.7051 25.4851 38.4061 25.0526C39.112 24.6151 39.8851 24.3963 40.7253 24.3963C41.3667 24.3963 41.9011 24.5057 42.3287 24.7244C42.7612 24.9382 43.1092 25.2067 43.3727 25.5298C43.6412 25.848 43.845 26.1612 43.9842 26.4695H44.0811V20.7273H47.2505V36H44.1184V34.1655H43.9842C43.835 34.4837 43.6238 34.7994 43.3503 35.1126C43.0819 35.4208 42.7314 35.6768 42.2988 35.8807C41.8713 36.0845 41.3493 36.1864 40.7328 36.1864ZM41.7395 33.6584C42.2516 33.6584 42.6841 33.5192 43.0371 33.2408C43.3951 32.9574 43.6685 32.5621 43.8574 32.055C44.0513 31.5479 44.1483 30.9538 44.1483 30.2727C44.1483 29.5916 44.0538 29 43.8649 28.4979C43.676 27.9957 43.4025 27.608 43.0446 27.3345C42.6866 27.0611 42.2516 26.9244 41.7395 26.9244C41.2175 26.9244 40.7775 27.0661 40.4196 27.3494C40.0616 27.6328 39.7907 28.0256 39.6067 28.5277C39.4228 29.0298 39.3308 29.6115 39.3308 30.2727C39.3308 30.9389 39.4228 31.5281 39.6067 32.0401C39.7956 32.5472 40.0666 32.945 40.4196 33.2333C40.7775 33.5167 41.2175 33.6584 41.7395 33.6584ZM54.0834 36.1864C53.2133 36.1864 52.4253 35.9627 51.7194 35.5153C51.0184 35.0629 50.4616 34.3991 50.0489 33.5241C49.6412 32.6442 49.4374 31.5653 49.4374 30.2876C49.4374 28.9751 49.6487 27.8839 50.0713 27.0138C50.4939 26.1388 51.0557 25.4851 51.7567 25.0526C52.4626 24.6151 53.2357 24.3963 54.0759 24.3963C54.7172 24.3963 55.2517 24.5057 55.6792 24.7244C56.1118 24.9382 56.4598 25.2067 56.7233 25.5298C56.9917 25.848 57.1956 26.1612 57.3348 26.4695H57.4317V20.7273H60.6011V36H57.469V34.1655H57.3348C57.1856 34.4837 56.9743 34.7994 56.7009 35.1126C56.4324 35.4208 56.0819 35.6768 55.6494 35.8807C55.2219 36.0845 54.6998 36.1864 54.0834 36.1864ZM55.0901 33.6584C55.6022 33.6584 56.0347 33.5192 56.3877 33.2408C56.7456 32.9574 57.0191 32.5621 57.208 32.055C57.4019 31.5479 57.4988 30.9538 57.4988 30.2727C57.4988 29.5916 57.4044 29 57.2155 28.4979C57.0265 27.9957 56.7531 27.608 56.3952 27.3345C56.0372 27.0611 55.6022 26.9244 55.0901 26.9244C54.5681 26.9244 54.1281 27.0661 53.7702 27.3494C53.4122 27.6328 53.1412 28.0256 52.9573 28.5277C52.7733 29.0298 52.6814 29.6115 52.6814 30.2727C52.6814 30.9389 52.7733 31.5281 52.9573 32.0401C53.1462 32.5472 53.4172 32.945 53.7702 33.2333C54.1281 33.5167 54.5681 33.6584 55.0901 33.6584ZM74.1661 24.5455V26.9318H67.268V24.5455H74.1661ZM68.8341 21.8011H72.0109V32.4801C72.0109 32.7734 72.0557 33.0021 72.1452 33.1662C72.2346 33.3253 72.3589 33.4371 72.518 33.5018C72.6821 33.5664 72.871 33.5987 73.0848 33.5987C73.2339 33.5987 73.3831 33.5863 73.5322 33.5614C73.6814 33.5316 73.7957 33.5092 73.8753 33.4943L74.3749 35.8583C74.2158 35.908 73.9921 35.9652 73.7037 36.0298C73.4154 36.0994 73.0649 36.1417 72.6523 36.1566C71.8866 36.1864 71.2155 36.0845 70.6388 35.8509C70.067 35.6172 69.6221 35.2543 69.3039 34.7621C68.9857 34.2699 68.8291 33.6484 68.8341 32.8977V21.8011ZM79.5019 36.2163C78.771 36.2163 78.1198 36.0895 77.548 35.8359C76.9763 35.5774 76.5239 35.1971 76.1908 34.695C75.8627 34.1879 75.6986 33.5565 75.6986 32.8008C75.6986 32.1644 75.8154 31.63 76.0491 31.1974C76.2828 30.7649 76.6009 30.4169 77.0036 30.1534C77.4063 29.8899 77.8637 29.6911 78.3758 29.5568C78.8928 29.4226 79.4347 29.3281 80.0015 29.2734C80.6677 29.2038 81.2046 29.1392 81.6123 29.0795C82.02 29.0149 82.3158 28.9205 82.4997 28.7962C82.6837 28.6719 82.7757 28.4879 82.7757 28.2443V28.1996C82.7757 27.7273 82.6265 27.3619 82.3282 27.1033C82.0349 26.8448 81.6173 26.7156 81.0754 26.7156C80.5036 26.7156 80.0487 26.8423 79.7107 27.0959C79.3726 27.3445 79.1489 27.6577 79.0395 28.0355L76.1013 27.7969C76.2504 27.1009 76.5438 26.4993 76.9813 25.9922C77.4188 25.4801 77.983 25.0874 78.6741 24.8139C79.3701 24.5355 80.1755 24.3963 81.0903 24.3963C81.7267 24.3963 82.3357 24.4709 82.9173 24.62C83.504 24.7692 84.0235 25.0004 84.4759 25.3136C84.9333 25.6268 85.2938 26.0295 85.5573 26.5217C85.8208 27.0089 85.9525 27.593 85.9525 28.2741V36H82.9397V34.4116H82.8502C82.6663 34.7695 82.4202 35.0852 82.1119 35.3587C81.8037 35.6271 81.4333 35.8384 81.0008 35.9925C80.5683 36.1417 80.0686 36.2163 79.5019 36.2163ZM80.4117 34.0238C80.879 34.0238 81.2916 33.9318 81.6496 33.7479C82.0075 33.5589 82.2884 33.3054 82.4923 32.9872C82.6961 32.669 82.798 32.3086 82.798 31.9059V30.6903C82.6986 30.755 82.5619 30.8146 82.3879 30.8693C82.2188 30.919 82.0274 30.9663 81.8137 31.011C81.5999 31.0508 81.3861 31.0881 81.1723 31.1229C80.9585 31.1527 80.7646 31.18 80.5906 31.2049C80.2178 31.2596 79.8921 31.3466 79.6137 31.4659C79.3353 31.5852 79.1191 31.7468 78.9649 31.9506C78.8108 32.1495 78.7338 32.3981 78.7338 32.6964C78.7338 33.1289 78.8904 33.4595 79.2036 33.6882C79.5218 33.9119 79.9244 34.0238 80.4117 34.0238ZM97.9477 27.8118L95.0393 27.9908C94.9896 27.7422 94.8827 27.5185 94.7187 27.3196C94.5546 27.1158 94.3383 26.9542 94.0699 26.8349C93.8064 26.7106 93.4907 26.6484 93.1228 26.6484C92.6306 26.6484 92.2155 26.7528 91.8774 26.9616C91.5393 27.1655 91.3703 27.4389 91.3703 27.782C91.3703 28.0554 91.4797 28.2866 91.6984 28.4755C91.9172 28.6644 92.2925 28.8161 92.8245 28.9304L94.8976 29.348C96.0113 29.5767 96.8415 29.9446 97.3884 30.4517C97.9353 30.9588 98.2087 31.625 98.2087 32.4503C98.2087 33.201 97.9875 33.8597 97.545 34.4265C97.1075 34.9933 96.5059 35.4357 95.7403 35.7539C94.9797 36.0671 94.1022 36.2237 93.1079 36.2237C91.5915 36.2237 90.3834 35.908 89.4836 35.2766C88.5887 34.6403 88.0642 33.7752 87.9101 32.6815L91.0347 32.5174C91.1292 32.9798 91.3579 33.3327 91.7208 33.5763C92.0837 33.815 92.5486 33.9343 93.1153 33.9343C93.6721 33.9343 94.1196 33.8274 94.4577 33.6136C94.8007 33.3949 94.9747 33.114 94.9797 32.771C94.9747 32.4826 94.8529 32.2464 94.6143 32.0625C94.3756 31.8736 94.0077 31.7294 93.5106 31.63L91.5269 31.2347C90.4083 31.011 89.5756 30.6232 89.0287 30.0714C88.4868 29.5195 88.2158 28.8161 88.2158 27.9609C88.2158 27.2251 88.4147 26.5913 88.8124 26.0593C89.2151 25.5273 89.7794 25.1172 90.5052 24.8288C91.2361 24.5405 92.0912 24.3963 93.0706 24.3963C94.5173 24.3963 95.6558 24.7021 96.4861 25.3136C97.3213 25.9251 97.8085 26.7578 97.9477 27.8118ZM103.088 32.7038L103.095 28.8931H103.558L107.227 24.5455H110.873L105.944 30.3026H105.191L103.088 32.7038ZM100.209 36V20.7273H103.386V36H100.209ZM107.368 36L103.998 31.011L106.115 28.7663L111.089 36H107.368Z" fill="white"/>
<mask id="mask0_170_1482" style="mask-type:alpha" maskUnits="userSpaceOnUse" x="116" y="12" width="33" height="32">
<rect x="116.068" y="12" width="32" height="32" fill="#D9D9D9"/>
</mask>
<g mask="url(#mask0_170_1482)">
<path d="M130.734 29.3327H122.734V26.666H130.734V18.666H133.401V26.666H141.401V29.3327H133.401V37.3327H130.734V29.3327Z" fill="white"/>
</g>
</g>
<defs>
<filter id="filter0_d_170_1482" x="0.0683594" y="0" width="168" height="64" filterUnits="userSpaceOnUse" color-interpolation-filters="sRGB">
<feFlood flood-opacity="0" result="BackgroundImageFix"/>
<feColorMatrix in="SourceAlpha" type="matrix" values="0 0 0 0 0 0 0 0 0 0 0 0 0 0 0 0 0 0 127 0" result="hardAlpha"/>
<feOffset dy="4"/>
<feGaussianBlur stdDeviation="2"/>
<feComposite in2="hardAlpha" operator="out"/>
<feColorMatrix type="matrix" values="0 0 0 0 0 0 0 0 0 0 0 0 0 0 0 0 0 0 0.25 0"/>
<feBlend mode="normal" in2="BackgroundImageFix" result="effect1_dropShadow_170_1482"/>
<feBlend mode="normal" in="SourceGraphic" in2="effect1_dropShadow_170_1482" result="shape"/>
</filter>
</defs>
</svg>
