<svg width="84" height="24" viewBox="0 0 84 24" fill="none" xmlns="http://www.w3.org/2000/svg">
<mask id="mask0_71348_10264" style="mask-type:alpha" maskUnits="userSpaceOnUse" x="0" y="0" width="25" height="24">
<rect x="0.5" width="24" height="24" fill="#D9D9D9"/>
</mask>
<g mask="url(#mask0_71348_10264)">
<path d="M7.5 21C6.95 21 6.47917 20.8042 6.0875 20.4125C5.69583 20.0208 5.5 19.55 5.5 19V6C5.21667 6 4.97917 5.90417 4.7875 5.7125C4.59583 5.52083 4.5 5.28333 4.5 5C4.5 4.71667 4.59583 4.47917 4.7875 4.2875C4.97917 4.09583 5.21667 4 5.5 4H9.5C9.5 3.71667 9.59583 3.47917 9.7875 3.2875C9.97917 3.09583 10.2167 3 10.5 3H14.5C14.7833 3 15.0208 3.09583 15.2125 3.2875C15.4042 3.47917 15.5 3.71667 15.5 4H19.5C19.7833 4 20.0208 4.09583 20.2125 4.2875C20.4042 4.47917 20.5 4.71667 20.5 5C20.5 5.28333 20.4042 5.52083 20.2125 5.7125C20.0208 5.90417 19.7833 6 19.5 6V19C19.5 19.55 19.3042 20.0208 18.9125 20.4125C18.5208 20.8042 18.05 21 17.5 21H7.5ZM7.5 6V19H17.5V6H7.5ZM9.5 16C9.5 16.2833 9.59583 16.5208 9.7875 16.7125C9.97917 16.9042 10.2167 17 10.5 17C10.7833 17 11.0208 16.9042 11.2125 16.7125C11.4042 16.5208 11.5 16.2833 11.5 16V9C11.5 8.71667 11.4042 8.47917 11.2125 8.2875C11.0208 8.09583 10.7833 8 10.5 8C10.2167 8 9.97917 8.09583 9.7875 8.2875C9.59583 8.47917 9.5 8.71667 9.5 9V16ZM13.5 16C13.5 16.2833 13.5958 16.5208 13.7875 16.7125C13.9792 16.9042 14.2167 17 14.5 17C14.7833 17 15.0208 16.9042 15.2125 16.7125C15.4042 16.5208 15.5 16.2833 15.5 16V9C15.5 8.71667 15.4042 8.47917 15.2125 8.2875C15.0208 8.09583 14.7833 8 14.5 8C14.2167 8 13.9792 8.09583 13.7875 8.2875C13.5958 8.47917 13.5 8.71667 13.5 9V16Z" fill="#29ABE2"/>
</g>
<path d="M37.6364 17.5H33.5114V5.86364H37.6705C38.8409 5.86364 39.8485 6.09659 40.6932 6.5625C41.5379 7.02462 42.1875 7.68939 42.642 8.55682C43.1004 9.42424 43.3295 10.4621 43.3295 11.6705C43.3295 12.8826 43.1004 13.9242 42.642 14.7955C42.1875 15.6667 41.5341 16.3352 40.6818 16.8011C39.8333 17.267 38.8182 17.5 37.6364 17.5ZM35.9716 15.392H37.5341C38.2614 15.392 38.8731 15.2633 39.3693 15.0057C39.8693 14.7443 40.2443 14.3409 40.4943 13.7955C40.7481 13.2462 40.875 12.5379 40.875 11.6705C40.875 10.8106 40.7481 10.108 40.4943 9.5625C40.2443 9.01705 39.8712 8.61553 39.375 8.35795C38.8788 8.10038 38.267 7.97159 37.5398 7.97159H35.9716V15.392ZM49.0838 17.6705C48.1861 17.6705 47.4134 17.4886 46.7656 17.125C46.1217 16.7576 45.6255 16.2386 45.277 15.5682C44.9285 14.8939 44.7543 14.0966 44.7543 13.1761C44.7543 12.2784 44.9285 11.4905 45.277 10.8125C45.6255 10.1345 46.116 9.60606 46.7486 9.22727C47.3849 8.84848 48.1312 8.65909 48.9872 8.65909C49.563 8.65909 50.099 8.75189 50.5952 8.9375C51.0952 9.11932 51.5308 9.39394 51.902 9.76136C52.277 10.1288 52.5687 10.5909 52.777 11.1477C52.9853 11.7008 53.0895 12.3485 53.0895 13.0909V13.7557H45.7202V12.2557H50.8111C50.8111 11.9072 50.7353 11.5985 50.5838 11.3295C50.4323 11.0606 50.2221 10.8504 49.9531 10.6989C49.688 10.5436 49.3793 10.4659 49.027 10.4659C48.6596 10.4659 48.3338 10.5511 48.0497 10.7216C47.7694 10.8883 47.5497 11.1136 47.3906 11.3977C47.2315 11.678 47.1501 11.9905 47.1463 12.3352V13.7614C47.1463 14.1932 47.2259 14.5663 47.3849 14.8807C47.5478 15.1951 47.777 15.4375 48.0724 15.608C48.3679 15.7784 48.7183 15.8636 49.1236 15.8636C49.3925 15.8636 49.6387 15.8258 49.8622 15.75C50.0857 15.6742 50.277 15.5606 50.4361 15.4091C50.5952 15.2576 50.7164 15.072 50.7997 14.8523L53.0384 15C52.9247 15.5379 52.6918 16.0076 52.3395 16.4091C51.991 16.8068 51.5402 17.1174 50.9872 17.3409C50.438 17.5606 49.8035 17.6705 49.0838 17.6705ZM57.0895 5.86364V17.5H54.669V5.86364H57.0895ZM63.0057 17.6705C62.108 17.6705 61.3352 17.4886 60.6875 17.125C60.0436 16.7576 59.5473 16.2386 59.1989 15.5682C58.8504 14.8939 58.6761 14.0966 58.6761 13.1761C58.6761 12.2784 58.8504 11.4905 59.1989 10.8125C59.5473 10.1345 60.0379 9.60606 60.6705 9.22727C61.3068 8.84848 62.053 8.65909 62.9091 8.65909C63.4848 8.65909 64.0208 8.75189 64.517 8.9375C65.017 9.11932 65.4527 9.39394 65.8239 9.76136C66.1989 10.1288 66.4905 10.5909 66.6989 11.1477C66.9072 11.7008 67.0114 12.3485 67.0114 13.0909V13.7557H59.642V12.2557H64.733C64.733 11.9072 64.6572 11.5985 64.5057 11.3295C64.3542 11.0606 64.1439 10.8504 63.875 10.6989C63.6098 10.5436 63.3011 10.4659 62.9489 10.4659C62.5814 10.4659 62.2557 10.5511 61.9716 10.7216C61.6913 10.8883 61.4716 11.1136 61.3125 11.3977C61.1534 11.678 61.072 11.9905 61.0682 12.3352V13.7614C61.0682 14.1932 61.1477 14.5663 61.3068 14.8807C61.4697 15.1951 61.6989 15.4375 61.9943 15.608C62.2898 15.7784 62.6402 15.8636 63.0455 15.8636C63.3144 15.8636 63.5606 15.8258 63.7841 15.75C64.0076 15.6742 64.1989 15.5606 64.358 15.4091C64.517 15.2576 64.6383 15.072 64.7216 14.8523L66.9602 15C66.8466 15.5379 66.6136 16.0076 66.2614 16.4091C65.9129 16.8068 65.4621 17.1174 64.9091 17.3409C64.3598 17.5606 63.7254 17.6705 63.0057 17.6705ZM73.233 8.77273V10.5909H67.9773V8.77273H73.233ZM69.1705 6.68182H71.5909V14.8182C71.5909 15.0417 71.625 15.2159 71.6932 15.3409C71.7614 15.4621 71.8561 15.5473 71.9773 15.5966C72.1023 15.6458 72.2462 15.6705 72.4091 15.6705C72.5227 15.6705 72.6364 15.661 72.75 15.642C72.8636 15.6193 72.9508 15.6023 73.0114 15.5909L73.392 17.392C73.2708 17.4299 73.1004 17.4735 72.8807 17.5227C72.661 17.5758 72.3939 17.608 72.0795 17.6193C71.4962 17.642 70.9848 17.5644 70.5455 17.3864C70.1098 17.2083 69.7708 16.9318 69.5284 16.5568C69.286 16.1818 69.1667 15.7083 69.1705 15.1364V6.68182ZM78.6932 17.6705C77.7955 17.6705 77.0227 17.4886 76.375 17.125C75.7311 16.7576 75.2348 16.2386 74.8864 15.5682C74.5379 14.8939 74.3636 14.0966 74.3636 13.1761C74.3636 12.2784 74.5379 11.4905 74.8864 10.8125C75.2348 10.1345 75.7254 9.60606 76.358 9.22727C76.9943 8.84848 77.7405 8.65909 78.5966 8.65909C79.1723 8.65909 79.7083 8.75189 80.2045 8.9375C80.7045 9.11932 81.1402 9.39394 81.5114 9.76136C81.8864 10.1288 82.178 10.5909 82.3864 11.1477C82.5947 11.7008 82.6989 12.3485 82.6989 13.0909V13.7557H75.3295V12.2557H80.4205C80.4205 11.9072 80.3447 11.5985 80.1932 11.3295C80.0417 11.0606 79.8314 10.8504 79.5625 10.6989C79.2973 10.5436 78.9886 10.4659 78.6364 10.4659C78.2689 10.4659 77.9432 10.5511 77.6591 10.7216C77.3788 10.8883 77.1591 11.1136 77 11.3977C76.8409 11.678 76.7595 11.9905 76.7557 12.3352V13.7614C76.7557 14.1932 76.8352 14.5663 76.9943 14.8807C77.1572 15.1951 77.3864 15.4375 77.6818 15.608C77.9773 15.7784 78.3277 15.8636 78.733 15.8636C79.0019 15.8636 79.2481 15.8258 79.4716 15.75C79.6951 15.6742 79.8864 15.5606 80.0455 15.4091C80.2045 15.2576 80.3258 15.072 80.4091 14.8523L82.6477 15C82.5341 15.5379 82.3011 16.0076 81.9489 16.4091C81.6004 16.8068 81.1496 17.1174 80.5966 17.3409C80.0473 17.5606 79.4129 17.6705 78.6932 17.6705Z" fill="#29ABE2"/>
</svg>
