<svg width="63" height="25" viewBox="0 0 63 25" fill="none" xmlns="http://www.w3.org/2000/svg">
<mask id="mask0_75609_16314" style="mask-type:alpha" maskUnits="userSpaceOnUse" x="0" y="0" width="25" height="25">
<rect x="0.682129" y="0.396729" width="24" height="24" fill="#D9D9D9"/>
</mask>
<g mask="url(#mask0_75609_16314)">
<path d="M5.68213 19.3967H7.08213L15.7071 10.7717L14.3071 9.37173L5.68213 17.9967V19.3967ZM19.9821 9.32173L15.7321 5.12173L17.1321 3.72173C17.5155 3.3384 17.9863 3.14673 18.5446 3.14673C19.103 3.14673 19.5738 3.3384 19.9571 3.72173L21.3571 5.12173C21.7405 5.50506 21.9405 5.96756 21.9571 6.50923C21.9738 7.0509 21.7905 7.5134 21.4071 7.89673L19.9821 9.32173ZM18.5321 10.7967L7.93213 21.3967H3.68213V17.1467L14.2821 6.54673L18.5321 10.7967Z" fill="#2A3647"/>
</g>
<path d="M34.0912 17.8967V6.26036H41.1139V7.51036H35.5003V11.4422H40.7503V12.6922H35.5003V16.6467H41.2049V17.8967H34.0912ZM46.7674 18.0785C46.0401 18.0785 45.398 17.8948 44.8412 17.5274C44.2844 17.1562 43.8488 16.6335 43.5344 15.9592C43.22 15.2812 43.0628 14.4801 43.0628 13.5558C43.0628 12.6392 43.22 11.8437 43.5344 11.1695C43.8488 10.4952 44.2863 9.97438 44.8469 9.60696C45.4075 9.23953 46.0552 9.05582 46.7901 9.05582C47.3583 9.05582 47.8071 9.15052 48.1367 9.33991C48.47 9.52552 48.7238 9.73764 48.898 9.97627C49.0761 10.2111 49.2143 10.4043 49.3128 10.5558H49.4264V6.26036H50.7674V17.8967H49.4719V16.5558H49.3128C49.2143 16.7149 49.0742 16.9157 48.8924 17.1581C48.7105 17.3967 48.4511 17.6107 48.1139 17.8001C47.7768 17.9857 47.328 18.0785 46.7674 18.0785ZM46.9492 16.874C47.4871 16.874 47.9416 16.7338 48.3128 16.4535C48.684 16.1695 48.9662 15.7774 49.1594 15.2774C49.3526 14.7736 49.4492 14.1922 49.4492 13.5331C49.4492 12.8816 49.3545 12.3115 49.1651 11.8229C48.9757 11.3304 48.6954 10.9479 48.3242 10.6751C47.953 10.3986 47.4946 10.2604 46.9492 10.2604C46.381 10.2604 45.9075 10.4062 45.5287 10.6979C45.1537 10.9857 44.8715 11.3778 44.6821 11.874C44.4965 12.3664 44.4037 12.9195 44.4037 13.5331C44.4037 14.1543 44.4984 14.7187 44.6878 15.2263C44.881 15.7301 45.1651 16.1316 45.5401 16.4308C45.9189 16.7263 46.3886 16.874 46.9492 16.874ZM53.4094 17.8967V9.16946H54.7503V17.8967H53.4094ZM54.0912 7.71491C53.8299 7.71491 53.6045 7.6259 53.4151 7.44786C53.2295 7.26983 53.1367 7.05582 53.1367 6.80582C53.1367 6.55582 53.2295 6.3418 53.4151 6.16377C53.6045 5.98574 53.8299 5.89673 54.0912 5.89673C54.3526 5.89673 54.5761 5.98574 54.7617 6.16377C54.9511 6.3418 55.0458 6.55582 55.0458 6.80582C55.0458 7.05582 54.9511 7.26983 54.7617 7.44786C54.5761 7.6259 54.3526 7.71491 54.0912 7.71491ZM61.0017 9.16946V10.3058H56.479V9.16946H61.0017ZM57.7972 7.07855H59.1381V15.3967C59.1381 15.7755 59.193 16.0596 59.3029 16.249C59.4165 16.4346 59.5604 16.5596 59.7347 16.624C59.9127 16.6846 60.1002 16.7149 60.2972 16.7149C60.4449 16.7149 60.5661 16.7073 60.6608 16.6922C60.7555 16.6732 60.8313 16.6581 60.8881 16.6467L61.1608 17.8513C61.0699 17.8854 60.943 17.9195 60.7801 17.9535C60.6173 17.9914 60.4108 18.0104 60.1608 18.0104C59.782 18.0104 59.4108 17.9289 59.0472 17.766C58.6873 17.6032 58.3881 17.3551 58.1495 17.0217C57.9146 16.6884 57.7972 16.2679 57.7972 15.7604V7.07855Z" fill="#2A3647"/>
</svg>
