<svg width="64" height="24" viewBox="0 0 64 24" fill="none" xmlns="http://www.w3.org/2000/svg">
<mask id="mask0_48008_4081" style="mask-type:alpha" maskUnits="userSpaceOnUse" x="0" y="0" width="25" height="24">
<rect x="0.5" width="24" height="24" fill="#D9D9D9"/>
</mask>
<g mask="url(#mask0_48008_4081)">
<path d="M5.5 19H6.9L15.525 10.375L14.125 8.975L5.5 17.6V19ZM19.8 8.925L15.55 4.725L16.95 3.325C17.3333 2.94167 17.8042 2.75 18.3625 2.75C18.9208 2.75 19.3917 2.94167 19.775 3.325L21.175 4.725C21.5583 5.10833 21.7583 5.57083 21.775 6.1125C21.7917 6.65417 21.6083 7.11667 21.225 7.5L19.8 8.925ZM18.35 10.4L7.75 21H3.5V16.75L14.1 6.15L18.35 10.4Z" fill="#29ABE2"/>
</g>
<path d="M33.5114 17.5V5.86364H41.3523V7.89205H35.9716V10.6648H40.9489V12.6932H35.9716V15.4716H41.375V17.5H33.5114ZM46.4787 17.642C45.8158 17.642 45.2154 17.4716 44.6776 17.1307C44.1435 16.786 43.7192 16.2803 43.4048 15.6136C43.0942 14.9432 42.9389 14.1212 42.9389 13.1477C42.9389 12.1477 43.0999 11.3163 43.4219 10.6534C43.7438 9.98674 44.1719 9.48864 44.706 9.15909C45.2438 8.82576 45.8329 8.65909 46.473 8.65909C46.9616 8.65909 47.3688 8.74242 47.6946 8.90909C48.0241 9.07197 48.2893 9.27652 48.4901 9.52273C48.6946 9.76515 48.8499 10.0038 48.956 10.2386H49.0298V5.86364H51.4446V17.5H49.0582V16.1023H48.956C48.8423 16.3447 48.6813 16.5852 48.473 16.8239C48.2685 17.0587 48.0014 17.2538 47.6719 17.4091C47.3461 17.5644 46.9484 17.642 46.4787 17.642ZM47.2457 15.7159C47.6359 15.7159 47.9654 15.6098 48.2344 15.3977C48.5071 15.1818 48.7154 14.8807 48.8594 14.4943C49.0071 14.108 49.081 13.6553 49.081 13.1364C49.081 12.6174 49.009 12.1667 48.8651 11.7841C48.7211 11.4015 48.5128 11.1061 48.2401 10.8977C47.9673 10.6894 47.6359 10.5852 47.2457 10.5852C46.848 10.5852 46.5128 10.6932 46.2401 10.9091C45.9673 11.125 45.7609 11.4242 45.6207 11.8068C45.4806 12.1894 45.4105 12.6326 45.4105 13.1364C45.4105 13.6439 45.4806 14.0928 45.6207 14.483C45.7647 14.8693 45.9711 15.1723 46.2401 15.392C46.5128 15.608 46.848 15.7159 47.2457 15.7159ZM53.4347 17.5V8.77273H55.8551V17.5H53.4347ZM54.6506 7.64773C54.2907 7.64773 53.982 7.52841 53.7244 7.28977C53.4706 7.04735 53.3438 6.75758 53.3438 6.42045C53.3438 6.08712 53.4706 5.80114 53.7244 5.5625C53.982 5.32008 54.2907 5.19886 54.6506 5.19886C55.0104 5.19886 55.3172 5.32008 55.571 5.5625C55.8286 5.80114 55.9574 6.08712 55.9574 6.42045C55.9574 6.75758 55.8286 7.04735 55.571 7.28977C55.3172 7.52841 55.0104 7.64773 54.6506 7.64773ZM62.4361 8.77273V10.5909H57.1804V8.77273H62.4361ZM58.3736 6.68182H60.794V14.8182C60.794 15.0417 60.8281 15.2159 60.8963 15.3409C60.9645 15.4621 61.0592 15.5473 61.1804 15.5966C61.3054 15.6458 61.4493 15.6705 61.6122 15.6705C61.7259 15.6705 61.8395 15.661 61.9531 15.642C62.0668 15.6193 62.1539 15.6023 62.2145 15.5909L62.5952 17.392C62.474 17.4299 62.3035 17.4735 62.0838 17.5227C61.8641 17.5758 61.5971 17.608 61.2827 17.6193C60.6993 17.642 60.188 17.5644 59.7486 17.3864C59.313 17.2083 58.974 16.9318 58.7315 16.5568C58.4891 16.1818 58.3698 15.7083 58.3736 15.1364V6.68182Z" fill="#29ABE2"/>
</svg>
