<svg width="204" height="37" viewBox="0 0 204 37" fill="none" xmlns="http://www.w3.org/2000/svg">
<rect x="0.682129" y="0.396729" width="203" height="36" rx="8" fill="#1FD7C1"/>
<path d="M31.9707 27.3967H30.0503L30.0503 12.6624H24.8843V10.9778L37.1143 10.9778V12.6624H31.9707L31.9707 27.3967ZM44.0547 14.8635C45.1029 14.8635 46.0013 15.0956 46.75 15.5598C47.4987 16.024 48.0715 16.6754 48.4683 17.5139C48.8651 18.345 49.0635 19.3183 49.0635 20.4338V21.5906H40.562C40.5845 23.0356 40.9438 24.1361 41.6401 24.8923C42.3364 25.6485 43.3172 26.0266 44.5825 26.0266C45.3612 26.0266 46.05 25.9555 46.6489 25.8132C47.2479 25.671 47.8693 25.4613 48.5132 25.1843V26.824C47.8918 27.101 47.2741 27.3031 46.6602 27.4304C46.0537 27.5577 45.335 27.6213 44.5039 27.6213C43.321 27.6213 42.2878 27.3818 41.4043 26.9026C40.5283 26.4159 39.847 25.7047 39.3604 24.7688C38.8737 23.8329 38.6304 22.6874 38.6304 21.3323C38.6304 20.0071 38.8512 18.8616 39.293 17.8958C39.7422 16.9224 40.3711 16.1737 41.1797 15.6497C41.9958 15.1256 42.9541 14.8635 44.0547 14.8635ZM44.0322 16.3909C43.0365 16.3909 42.2428 16.7166 41.6514 17.3679C41.0599 18.0193 40.708 18.929 40.5957 20.0969L47.1094 20.0969C47.1019 19.3632 46.9858 18.7193 46.7612 18.1653C46.5441 17.6038 46.2109 17.1695 45.7617 16.8625C45.3125 16.5481 44.736 16.3909 44.0322 16.3909ZM57.1606 27.6213C56.0526 27.6213 55.0755 27.393 54.2295 26.9363C53.3835 26.4796 52.7246 25.7833 52.2529 24.8474C51.7812 23.9115 51.5454 22.7323 51.5454 21.3098C51.5454 19.8199 51.7925 18.6033 52.2866 17.6599C52.7882 16.7091 53.4771 16.0053 54.353 15.5486C55.229 15.0919 56.2248 14.8635 57.3403 14.8635C57.9543 14.8635 58.5457 14.9272 59.1147 15.0544C59.6912 15.1742 60.1629 15.3277 60.5298 15.5149L59.9683 17.0759C59.5939 16.9262 59.1597 16.7914 58.6655 16.6716C58.1789 16.5518 57.7222 16.4919 57.2954 16.4919C56.4419 16.4919 55.7306 16.6754 55.1616 17.0422C54.6001 17.4091 54.1771 17.9482 53.8926 18.6594C53.6156 19.3707 53.4771 20.2467 53.4771 21.2874C53.4771 22.2831 53.6118 23.1329 53.8813 23.8367C54.1584 24.5404 54.5664 25.0795 55.1055 25.4539C55.652 25.8207 56.3333 26.0042 57.1494 26.0042C57.8008 26.0042 58.3885 25.9368 58.9126 25.802C59.4367 25.6597 59.9121 25.495 60.3389 25.3079L60.3389 26.97C59.9271 27.1796 59.4666 27.3406 58.9575 27.4529C58.4559 27.5652 57.8569 27.6213 57.1606 27.6213ZM65.123 9.92212V15.1443C65.123 15.4438 65.1156 15.747 65.1006 16.054C65.0856 16.3534 65.0594 16.6305 65.022 16.885H65.1455C65.4001 16.4508 65.722 16.0876 66.1113 15.7957C66.5081 15.4962 66.9574 15.2716 67.459 15.1218C67.9606 14.9646 68.4922 14.886 69.0537 14.886C70.042 14.886 70.8656 15.0432 71.5244 15.3577C72.1908 15.6721 72.6886 16.1588 73.0181 16.8176C73.355 17.4765 73.5234 18.33 73.5234 19.3782V27.3967H71.6816V19.5017C71.6816 18.476 71.4458 17.7086 70.9741 17.1995C70.5099 16.6903 69.7949 16.4358 68.8291 16.4358C67.9157 16.4358 67.1857 16.6117 66.6392 16.9636C66.1001 17.308 65.7108 17.8171 65.4712 18.491C65.2391 19.1648 65.123 19.9884 65.123 20.9617V27.3967H63.2588L63.2588 9.92212H65.123ZM83.1929 14.8635C84.6528 14.8635 85.7572 15.2229 86.5059 15.9417C87.2546 16.6529 87.6289 17.7984 87.6289 19.3782V27.3967H85.7871V19.5017C85.7871 18.476 85.5513 17.7086 85.0796 17.1995C84.6154 16.6903 83.9004 16.4358 82.9346 16.4358C81.5719 16.4358 80.6136 16.8214 80.0596 17.5925C79.5055 18.3637 79.2285 19.483 79.2285 20.9504V27.3967H77.3643V15.0881H78.8691L79.1499 16.8625H79.251C79.513 16.4283 79.8462 16.0652 80.2505 15.7732C80.6548 15.4737 81.1077 15.2491 81.6094 15.0994C82.111 14.9421 82.6388 14.8635 83.1929 14.8635ZM93.334 15.0881V27.3967H91.4697V15.0881H93.334ZM92.4243 10.4836C92.7313 10.4836 92.9933 10.5847 93.2104 10.7869C93.4351 10.9815 93.5474 11.2885 93.5474 11.7078C93.5474 12.1195 93.4351 12.4265 93.2104 12.6287C92.9933 12.8308 92.7313 12.9319 92.4243 12.9319C92.1024 12.9319 91.8328 12.8308 91.6157 12.6287C91.4061 12.4265 91.3013 12.1195 91.3013 11.7078C91.3013 11.2885 91.4061 10.9815 91.6157 10.7869C91.8328 10.5847 92.1024 10.4836 92.4243 10.4836ZM102.217 27.6213C101.109 27.6213 100.132 27.393 99.2861 26.9363C98.4401 26.4796 97.7812 25.7833 97.3096 24.8474C96.8379 23.9115 96.6021 22.7323 96.6021 21.3098C96.6021 19.8199 96.8491 18.6033 97.3433 17.6599C97.8449 16.7091 98.5337 16.0053 99.4097 15.5486C100.286 15.0919 101.281 14.8635 102.397 14.8635C103.011 14.8635 103.602 14.9272 104.171 15.0544C104.748 15.1742 105.22 15.3277 105.586 15.5149L105.025 17.0759C104.651 16.9262 104.216 16.7914 103.722 16.6716C103.236 16.5518 102.779 16.4919 102.352 16.4919C101.499 16.4919 100.787 16.6754 100.218 17.0422C99.6567 17.4091 99.2337 17.9482 98.9492 18.6594C98.6722 19.3707 98.5337 20.2467 98.5337 21.2874C98.5337 22.2831 98.6685 23.1329 98.938 23.8367C99.215 24.5404 99.623 25.0795 100.162 25.4539C100.709 25.8207 101.39 26.0042 102.206 26.0042C102.857 26.0042 103.445 25.9368 103.969 25.802C104.493 25.6597 104.969 25.495 105.396 25.3079V26.97C104.984 27.1796 104.523 27.3406 104.014 27.4529C103.513 27.5652 102.914 27.6213 102.217 27.6213ZM112.92 14.886C114.387 14.886 115.477 15.2154 116.188 15.8743C116.899 16.5331 117.255 17.585 117.255 19.03V27.3967H115.896L115.537 25.5774H115.447C115.102 26.0266 114.743 26.4047 114.369 26.7117C113.994 27.0111 113.56 27.2395 113.066 27.3967C112.579 27.5465 111.98 27.6213 111.269 27.6213C110.52 27.6213 109.854 27.4903 109.27 27.2283C108.694 26.9662 108.237 26.5694 107.9 26.0378C107.57 25.5063 107.406 24.8324 107.406 24.0164C107.406 22.7885 107.892 21.8451 108.866 21.1863C109.839 20.5274 111.321 20.1681 113.313 20.1082L115.436 20.0183V19.2659C115.436 18.2027 115.207 17.4578 114.75 17.031C114.294 16.6042 113.65 16.3909 112.819 16.3909C112.175 16.3909 111.561 16.4845 110.977 16.6716C110.393 16.8588 109.839 17.0797 109.315 17.3342L108.742 15.9192C109.296 15.6347 109.933 15.3914 110.651 15.1892C111.37 14.9871 112.126 14.886 112.92 14.886ZM115.413 21.3323L113.538 21.4109C112.003 21.4708 110.921 21.7216 110.292 22.1633C109.663 22.6051 109.349 23.2302 109.349 24.0388C109.349 24.7426 109.562 25.2629 109.989 25.5999C110.416 25.9368 110.981 26.1052 111.685 26.1052C112.778 26.1052 113.672 25.802 114.369 25.1956C115.065 24.5891 115.413 23.6794 115.413 22.4666V21.3323ZM122.971 27.3967H121.096V9.92212L122.971 9.92212V27.3967ZM138.211 27.3967H136.291V12.6624H131.125V10.9778H143.354V12.6624L138.211 12.6624V27.3967ZM150.16 14.886C151.628 14.886 152.717 15.2154 153.428 15.8743C154.139 16.5331 154.495 17.585 154.495 19.03V27.3967H153.136L152.777 25.5774H152.687C152.343 26.0266 151.983 26.4047 151.609 26.7117C151.235 27.0111 150.8 27.2395 150.306 27.3967C149.819 27.5465 149.221 27.6213 148.509 27.6213C147.761 27.6213 147.094 27.4903 146.51 27.2283C145.934 26.9662 145.477 26.5694 145.14 26.0378C144.811 25.5063 144.646 24.8324 144.646 24.0164C144.646 22.7885 145.133 21.8451 146.106 21.1863C147.079 20.5274 148.562 20.1681 150.553 20.1082L152.676 20.0183V19.2659C152.676 18.2027 152.447 17.4578 151.991 17.031C151.534 16.6042 150.89 16.3909 150.059 16.3909C149.415 16.3909 148.801 16.4845 148.217 16.6716C147.633 16.8588 147.079 17.0797 146.555 17.3342L145.982 15.9192C146.536 15.6347 147.173 15.3914 147.892 15.1892C148.61 14.9871 149.367 14.886 150.16 14.886ZM152.653 21.3323L150.778 21.4109C149.243 21.4708 148.161 21.7216 147.532 22.1633C146.903 22.6051 146.589 23.2302 146.589 24.0388C146.589 24.7426 146.802 25.2629 147.229 25.5999C147.656 25.9368 148.221 26.1052 148.925 26.1052C150.018 26.1052 150.913 25.802 151.609 25.1956C152.305 24.5891 152.653 23.6794 152.653 22.4666V21.3323ZM166.298 24.0276C166.298 24.8137 166.1 25.4763 165.703 26.0154C165.314 26.547 164.752 26.9475 164.019 27.217C163.292 27.4866 162.424 27.6213 161.413 27.6213C160.552 27.6213 159.807 27.554 159.178 27.4192C158.549 27.2844 157.999 27.0935 157.527 26.8464V25.1282C158.029 25.3752 158.628 25.5999 159.324 25.802C160.021 26.0042 160.732 26.1052 161.458 26.1052C162.521 26.1052 163.292 25.933 163.771 25.5886C164.251 25.2442 164.49 24.7763 164.49 24.1848C164.49 23.8479 164.393 23.5522 164.198 23.2976C164.011 23.0356 163.693 22.7847 163.244 22.5452C162.794 22.2981 162.173 22.0286 161.379 21.7366C160.593 21.4371 159.912 21.1414 159.335 20.8494C158.766 20.5499 158.325 20.1868 158.01 19.76C157.703 19.3333 157.55 18.7792 157.55 18.0979C157.55 17.0572 157.969 16.2598 158.808 15.7058C159.654 15.1443 160.762 14.8635 162.132 14.8635C162.873 14.8635 163.566 14.9384 164.209 15.0881C164.861 15.2304 165.467 15.425 166.029 15.6721L165.4 17.1658C164.891 16.9486 164.348 16.7652 163.771 16.6155C163.195 16.4657 162.607 16.3909 162.008 16.3909C161.147 16.3909 160.485 16.5331 160.021 16.8176C159.564 17.1021 159.335 17.4915 159.335 17.9856C159.335 18.3674 159.44 18.6819 159.65 18.929C159.867 19.176 160.211 19.4081 160.683 19.6252C161.155 19.8424 161.776 20.0969 162.547 20.3889C163.319 20.6734 163.985 20.9692 164.546 21.2761C165.108 21.5756 165.538 21.9425 165.838 22.3767C166.145 22.8035 166.298 23.3538 166.298 24.0276ZM171.15 9.92212V18.9963C171.15 19.2958 171.139 19.6627 171.116 20.0969C171.094 20.5237 171.075 20.9018 171.06 21.2312H171.139C171.296 21.0365 171.524 20.7483 171.824 20.3665C172.131 19.9846 172.389 19.6777 172.599 19.4456L176.687 15.0881H178.876L173.924 20.344L179.236 27.3967H176.99L172.644 21.5681L171.15 22.9382V27.3967H169.297V9.92212L171.15 9.92212Z" fill="white"/>
</svg>
