<svg width="161" height="37" viewBox="0 0 161 37" fill="none" xmlns="http://www.w3.org/2000/svg">
<rect x="0.682129" y="0.396729" width="160" height="36" rx="8" fill="#0038FF"/>
<path d="M39.3491 10.9778V21.6018C39.3491 22.7623 39.1133 23.7955 38.6416 24.7014C38.1774 25.6073 37.4736 26.3223 36.5303 26.8464C35.5869 27.363 34.404 27.6213 32.9814 27.6213C30.9525 27.6213 29.4064 27.071 28.3433 25.9705C27.2876 24.8699 26.7598 23.3987 26.7598 21.5569L26.7598 10.9778H28.6802L28.6802 21.613C28.6802 23.0056 29.047 24.08 29.7808 24.8362C30.522 25.5924 31.6263 25.9705 33.0938 25.9705C34.097 25.9705 34.9168 25.7908 35.5532 25.4314C36.1971 25.0645 36.6725 24.5554 36.9795 23.9041C37.2939 23.2452 37.4512 22.4853 37.4512 21.6243V10.9778L39.3491 10.9778ZM51.3882 24.0276C51.3882 24.8137 51.1898 25.4763 50.793 26.0154C50.4036 26.547 49.8421 26.9475 49.1084 27.217C48.3822 27.4866 47.5137 27.6213 46.5029 27.6213C45.6419 27.6213 44.897 27.554 44.2681 27.4192C43.6392 27.2844 43.0889 27.0935 42.6172 26.8464V25.1282C43.1188 25.3752 43.7178 25.5999 44.4141 25.802C45.1104 26.0042 45.8216 26.1052 46.5479 26.1052C47.611 26.1052 48.3822 25.933 48.8613 25.5886C49.3405 25.2442 49.5801 24.7763 49.5801 24.1848C49.5801 23.8479 49.4827 23.5522 49.2881 23.2976C49.1009 23.0356 48.7827 22.7847 48.3335 22.5452C47.8843 22.2981 47.2629 22.0286 46.4692 21.7366C45.6831 21.4371 45.0018 21.1414 44.4253 20.8494C43.8563 20.5499 43.4146 20.1868 43.1001 19.76C42.7931 19.3333 42.6396 18.7792 42.6396 18.0979C42.6396 17.0572 43.0589 16.2598 43.8975 15.7058C44.7435 15.1443 45.8516 14.8635 47.2217 14.8635C47.9629 14.8635 48.6554 14.9384 49.2993 15.0881C49.9507 15.2304 50.5571 15.425 51.1187 15.6721L50.4897 17.1658C49.9806 16.9486 49.4378 16.7652 48.8613 16.6155C48.2848 16.4657 47.6971 16.3909 47.0981 16.3909C46.2371 16.3909 45.5745 16.5331 45.1104 16.8176C44.6536 17.1021 44.4253 17.4915 44.4253 17.9856C44.4253 18.3674 44.5301 18.6819 44.7397 18.929C44.9569 19.176 45.3013 19.4081 45.7729 19.6252C46.2446 19.8424 46.866 20.0969 47.6372 20.3889C48.4084 20.6734 49.0747 20.9692 49.6362 21.2761C50.1978 21.5756 50.6283 21.9425 50.9277 22.3767C51.2347 22.8035 51.3882 23.3538 51.3882 24.0276ZM59.126 14.8635C60.1742 14.8635 61.0726 15.0956 61.8213 15.5598C62.57 16.024 63.1427 16.6754 63.5396 17.5139C63.9364 18.345 64.1348 19.3183 64.1348 20.4338V21.5906L55.6333 21.5906C55.6558 23.0356 56.0151 24.1361 56.7114 24.8923C57.4077 25.6485 58.3885 26.0266 59.6538 26.0266C60.4325 26.0266 61.1213 25.9555 61.7202 25.8132C62.3192 25.671 62.9406 25.4613 63.5845 25.1843L63.5845 26.824C62.9631 27.101 62.3454 27.3031 61.7314 27.4304C61.125 27.5577 60.4062 27.6213 59.5752 27.6213C58.3923 27.6213 57.359 27.3818 56.4756 26.9026C55.5996 26.4159 54.9183 25.7047 54.4316 24.7688C53.945 23.8329 53.7017 22.6874 53.7017 21.3323C53.7017 20.0071 53.9225 18.8616 54.3643 17.8958C54.8135 16.9224 55.4424 16.1737 56.251 15.6497C57.0671 15.1256 58.0254 14.8635 59.126 14.8635ZM59.1035 16.3909C58.1077 16.3909 57.3141 16.7166 56.7227 17.3679C56.1312 18.0193 55.7793 18.929 55.667 20.0969H62.1807C62.1732 19.3632 62.0571 18.7193 61.8325 18.1653C61.6154 17.6038 61.2822 17.1695 60.833 16.8625C60.3838 16.5481 59.8073 16.3909 59.1035 16.3909ZM72.8945 14.8635C73.1416 14.8635 73.3999 14.8785 73.6694 14.9084C73.939 14.9309 74.1785 14.9646 74.3882 15.0095L74.1523 16.739C73.9502 16.6866 73.7256 16.6454 73.4785 16.6155C73.2314 16.5855 72.9993 16.5706 72.7822 16.5706C72.2881 16.5706 71.8201 16.6716 71.3784 16.8738C70.9442 17.0684 70.5623 17.3529 70.2329 17.7273C69.9035 18.0942 69.6452 18.5396 69.458 19.0637C69.2708 19.5803 69.1772 20.1568 69.1772 20.7932V27.3967H67.3018V15.0881H68.8516L69.0537 17.3567H69.1323C69.3869 16.9 69.6938 16.4845 70.0532 16.1101C70.4126 15.7283 70.8281 15.425 71.2998 15.2004C71.779 14.9758 72.3105 14.8635 72.8945 14.8635ZM92.2334 23.0281C92.2334 24.0014 91.9901 24.8324 91.5034 25.5212C91.0243 26.2026 90.3504 26.7229 89.4819 27.0823C88.6134 27.4417 87.5915 27.6213 86.416 27.6213C85.7946 27.6213 85.2069 27.5914 84.6528 27.5315C84.0988 27.4716 83.5897 27.3855 83.1255 27.2732C82.6613 27.1609 82.2533 27.0224 81.9014 26.8577V25.0271C82.4629 25.2592 83.1479 25.4763 83.9565 25.6785C84.7651 25.8731 85.6112 25.9705 86.4946 25.9705C87.3182 25.9705 88.0145 25.8619 88.5835 25.6448C89.1525 25.4202 89.583 25.102 89.875 24.6902C90.1745 24.2709 90.3242 23.7693 90.3242 23.1853C90.3242 22.6238 90.2007 22.1558 89.9536 21.7815C89.7065 21.3997 89.2948 21.0553 88.7183 20.7483C88.1493 20.4338 87.3706 20.1007 86.3823 19.7488C85.686 19.5017 85.0721 19.2322 84.5405 18.9402C84.009 18.6407 83.5635 18.3038 83.2041 17.9294C82.8447 17.5551 82.5715 17.1208 82.3843 16.6267C82.2046 16.1326 82.1147 15.5673 82.1147 14.9309C82.1147 14.0549 82.3356 13.3062 82.7773 12.6848C83.2266 12.0559 83.8442 11.5767 84.6304 11.2473C85.424 10.9104 86.3337 10.7419 87.3594 10.7419C88.2354 10.7419 89.0439 10.8243 89.7852 10.989C90.5339 11.1537 91.2189 11.3746 91.8403 11.6516L91.2451 13.2913C90.6536 13.0442 90.0247 12.8383 89.3584 12.6736C88.6995 12.5089 88.0182 12.4265 87.3145 12.4265C86.6107 12.4265 86.0155 12.5313 85.5288 12.741C85.0496 12.9431 84.6828 13.2314 84.4282 13.6057C84.1737 13.9801 84.0464 14.4255 84.0464 14.9421C84.0464 15.5186 84.1662 15.9978 84.4058 16.3796C84.6528 16.7615 85.0422 17.1021 85.5737 17.4016C86.1128 17.6936 86.8241 18.0006 87.7075 18.3225C88.6733 18.6744 89.4932 19.0487 90.167 19.4456C90.8408 19.8349 91.3537 20.314 91.7056 20.8831C92.0575 21.4446 92.2334 22.1596 92.2334 23.0281ZM99.2861 26.094C99.5931 26.094 99.9076 26.0678 100.229 26.0154C100.551 25.963 100.813 25.8993 101.016 25.8245V27.2732C100.799 27.3705 100.495 27.4529 100.106 27.5203C99.7241 27.5876 99.3498 27.6213 98.9829 27.6213C98.3315 27.6213 97.7401 27.509 97.2085 27.2844C96.6769 27.0523 96.2502 26.663 95.9282 26.1165C95.6138 25.5699 95.4565 24.8137 95.4565 23.8479V16.5481H93.7046V15.6384L95.4678 14.9084L96.209 12.2356H97.332V15.0881H100.937V16.5481H97.332V23.7917C97.332 24.5629 97.508 25.1394 97.8599 25.5212C98.2192 25.9031 98.6947 26.094 99.2861 26.094ZM114.122 21.22C114.122 22.2307 113.991 23.1329 113.729 23.9265C113.466 24.7201 113.088 25.3902 112.594 25.9368C112.1 26.4833 111.501 26.9026 110.797 27.1946C110.101 27.4791 109.311 27.6213 108.428 27.6213C107.604 27.6213 106.848 27.4791 106.159 27.1946C105.478 26.9026 104.886 26.4833 104.385 25.9368C103.891 25.3902 103.505 24.7201 103.228 23.9265C102.958 23.1329 102.824 22.2307 102.824 21.22C102.824 19.8723 103.052 18.7268 103.509 17.7834C103.965 16.8326 104.617 16.1101 105.463 15.616C106.316 15.1143 107.331 14.8635 108.506 14.8635C109.629 14.8635 110.61 15.1143 111.449 15.616C112.295 16.1176 112.95 16.8438 113.414 17.7947C113.886 18.738 114.122 19.8798 114.122 21.22ZM104.755 21.22C104.755 22.2083 104.886 23.0655 105.148 23.7917C105.41 24.518 105.815 25.0795 106.361 25.4763C106.908 25.8731 107.612 26.0715 108.473 26.0715C109.326 26.0715 110.026 25.8731 110.573 25.4763C111.127 25.0795 111.535 24.518 111.797 23.7917C112.059 23.0655 112.19 22.2083 112.19 21.22C112.19 20.2392 112.059 19.3931 111.797 18.6819C111.535 17.9631 111.131 17.4091 110.584 17.0198C110.037 16.6305 109.33 16.4358 108.461 16.4358C107.181 16.4358 106.242 16.8588 105.643 17.7048C105.051 18.5509 104.755 19.7226 104.755 21.22ZM122.938 14.8635C123.185 14.8635 123.443 14.8785 123.712 14.9084C123.982 14.9309 124.222 14.9646 124.431 15.0095L124.195 16.739C123.993 16.6866 123.769 16.6454 123.521 16.6155C123.274 16.5855 123.042 16.5706 122.825 16.5706C122.331 16.5706 121.863 16.6716 121.421 16.8738C120.987 17.0684 120.605 17.3529 120.276 17.7273C119.946 18.0942 119.688 18.5396 119.501 19.0637C119.314 19.5803 119.22 20.1568 119.22 20.7932V27.3967H117.345V15.0881L118.895 15.0881L119.097 17.3567H119.175C119.43 16.9 119.737 16.4845 120.096 16.1101C120.456 15.7283 120.871 15.425 121.343 15.2004C121.822 14.9758 122.354 14.8635 122.938 14.8635ZM124.813 15.0881H126.812L129.53 22.2307C129.687 22.65 129.833 23.0543 129.968 23.4436C130.103 23.8254 130.222 24.1923 130.327 24.5442C130.432 24.8961 130.514 25.2367 130.574 25.5662H130.653C130.758 25.1918 130.907 24.7014 131.102 24.095C131.297 23.481 131.506 22.8559 131.731 22.2195L134.303 15.0881H136.313L130.956 29.2048C130.672 29.961 130.338 30.6199 129.957 31.1814C129.582 31.7429 129.125 32.1734 128.586 32.4729C128.047 32.7799 127.396 32.9333 126.632 32.9333C126.28 32.9333 125.97 32.9109 125.7 32.866C125.431 32.8285 125.199 32.7836 125.004 32.7312V31.2375C125.169 31.275 125.367 31.3087 125.599 31.3386C125.839 31.3686 126.086 31.3835 126.34 31.3835C126.805 31.3835 127.205 31.2937 127.542 31.114C127.886 30.9418 128.182 30.6873 128.429 30.3503C128.676 30.0134 128.89 29.6129 129.069 29.1487L129.743 27.4192L124.813 15.0881Z" fill="white"/>
</svg>
