<svg width="33" height="33" viewBox="0 0 33 33" fill="none" xmlns="http://www.w3.org/2000/svg">
<mask id="mask0_75857_7481" style="mask-type:alpha" maskUnits="userSpaceOnUse" x="4" y="4" width="25" height="25">
<rect x="4.68213" y="4.39673" width="24" height="24" fill="#D9D9D9"/>
</mask>
<g mask="url(#mask0_75857_7481)">
<path d="M16.6819 17.7968L11.7819 22.6968C11.5986 22.8801 11.3653 22.9718 11.0819 22.9718C10.7986 22.9718 10.5653 22.8801 10.3819 22.6968C10.1986 22.5134 10.1069 22.2801 10.1069 21.9968C10.1069 21.7134 10.1986 21.4801 10.3819 21.2968L15.2819 16.3968L10.3819 11.4968C10.1986 11.3134 10.1069 11.0801 10.1069 10.7968C10.1069 10.5134 10.1986 10.2801 10.3819 10.0968C10.5653 9.91344 10.7986 9.82178 11.0819 9.82178C11.3653 9.82178 11.5986 9.91344 11.7819 10.0968L16.6819 14.9968L21.5819 10.0968C21.7653 9.91344 21.9986 9.82178 22.2819 9.82178C22.5653 9.82178 22.7986 9.91344 22.9819 10.0968C23.1653 10.2801 23.2569 10.5134 23.2569 10.7968C23.2569 11.0801 23.1653 11.3134 22.9819 11.4968L18.0819 16.3968L22.9819 21.2968C23.1653 21.4801 23.2569 21.7134 23.2569 21.9968C23.2569 22.2801 23.1653 22.5134 22.9819 22.6968C22.7986 22.8801 22.5653 22.9718 22.2819 22.9718C21.9986 22.9718 21.7653 22.8801 21.5819 22.6968L16.6819 17.7968Z" fill="#2A3647"/>
</g>
</svg>
