<svg width="21" height="15" viewBox="0 0 21 15" fill="none" xmlns="http://www.w3.org/2000/svg">
<path d="M10.8491 8.90286C10.6145 8.90327 10.386 8.82843 10.1971 8.68935L1.29403 2.11961C1.1782 2.03406 1.08036 1.92654 1.0061 1.8032C0.931846 1.67986 0.882629 1.54311 0.861261 1.40076C0.818107 1.11328 0.891007 0.820446 1.06392 0.586673C1.23684 0.352901 1.49561 0.197343 1.7833 0.154221C2.071 0.111099 2.36405 0.183944 2.598 0.356733L10.8491 6.43921L19.1002 0.356733C19.2161 0.271177 19.3477 0.209257 19.4874 0.17451C19.6272 0.139763 19.7725 0.132869 19.9149 0.154221C20.0574 0.175573 20.1942 0.224753 20.3177 0.298953C20.4411 0.373154 20.5487 0.470921 20.6343 0.586673C20.7199 0.702426 20.7819 0.833896 20.8167 0.973578C20.8514 1.11326 20.8583 1.25842 20.837 1.40076C20.8156 1.54311 20.7664 1.67986 20.6921 1.8032C20.6179 1.92654 20.52 2.03406 20.4042 2.11961L11.5011 8.68935C11.3123 8.82843 11.0837 8.90327 10.8491 8.90286Z" fill="#7AE229"/>
<path d="M10.8491 14.6514C10.6145 14.6518 10.386 14.577 10.1971 14.4379L1.29403 7.86815C1.06009 7.69536 0.904415 7.43678 0.861261 7.1493C0.818107 6.86182 0.891007 6.56898 1.06392 6.33521C1.23684 6.10144 1.49561 5.94588 1.7833 5.90276C2.071 5.85963 2.36405 5.93248 2.598 6.10527L10.8491 12.1877L19.1002 6.10527C19.3342 5.93248 19.6272 5.85963 19.9149 5.90276C20.2026 5.94588 20.4614 6.10144 20.6343 6.33521C20.8072 6.56898 20.8801 6.86182 20.837 7.1493C20.7938 7.43678 20.6382 7.69536 20.4042 7.86815L11.5011 14.4379C11.3123 14.577 11.0837 14.6518 10.8491 14.6514Z" fill="#7AE229"/>
</svg>
