<svg width="104" height="33" viewBox="0 0 104 33" fill="none" xmlns="http://www.w3.org/2000/svg">
<path d="M19.983 23.3967V8.85127H21.7444V21.8342H28.5058V23.3967H19.983ZM35.4376 23.624C34.4527 23.624 33.5886 23.3896 32.8453 22.9209C32.1066 22.4521 31.529 21.7963 31.1123 20.9535C30.7004 20.1107 30.4944 19.1259 30.4944 17.999C30.4944 16.8626 30.7004 15.8707 31.1123 15.0231C31.529 14.1756 32.1066 13.5175 32.8453 13.0487C33.5886 12.58 34.4527 12.3456 35.4376 12.3456C36.4224 12.3456 37.2842 12.58 38.0228 13.0487C38.7662 13.5175 39.3438 14.1756 39.7558 15.0231C40.1724 15.8707 40.3808 16.8626 40.3808 17.999C40.3808 19.1259 40.1724 20.1107 39.7558 20.9535C39.3438 21.7963 38.7662 22.4521 38.0228 22.9209C37.2842 23.3896 36.4224 23.624 35.4376 23.624ZM35.4376 22.1183C36.1857 22.1183 36.8012 21.9266 37.2842 21.543C37.7671 21.1595 38.1246 20.6553 38.3566 20.0303C38.5886 19.4053 38.7046 18.7282 38.7046 17.999C38.7046 17.2698 38.5886 16.5904 38.3566 15.9606C38.1246 15.3309 37.7671 14.8219 37.2842 14.4337C36.8012 14.0454 36.1857 13.8513 35.4376 13.8513C34.6895 13.8513 34.074 14.0454 33.591 14.4337C33.108 14.8219 32.7506 15.3309 32.5186 15.9606C32.2865 16.5904 32.1705 17.2698 32.1705 17.999C32.1705 18.7282 32.2865 19.4053 32.5186 20.0303C32.7506 20.6553 33.108 21.1595 33.591 21.543C34.074 21.9266 34.6895 22.1183 35.4376 22.1183ZM45.0399 23.3967L41.716 12.4876H43.4774L45.8353 20.8399H45.949L48.2785 12.4876H50.0683L52.3694 20.8115H52.483L54.841 12.4876H56.6024L53.2785 23.3967H51.6308L49.2444 15.016H49.074L46.6876 23.3967H45.0399Z" fill="black"/>
<g clip-path="url(#clip0_75609_16137)">
<path d="M76.7217 17.6418C76.5222 17.6422 76.328 17.5803 76.1674 17.4652L68.5989 12.0313C68.5004 11.9605 68.4173 11.8716 68.3542 11.7696C68.291 11.6675 68.2492 11.5544 68.231 11.4367C68.1943 11.1989 68.2563 10.9567 68.4033 10.7634C68.5503 10.57 68.7703 10.4413 69.0148 10.4057C69.2594 10.37 69.5085 10.4302 69.7074 10.5732L76.7217 15.6041L83.7359 10.5732C83.8344 10.5024 83.9462 10.4512 84.0651 10.4224C84.1839 10.3937 84.3074 10.388 84.4285 10.4057C84.5496 10.4233 84.6659 10.464 84.7708 10.5254C84.8758 10.5867 84.9672 10.6676 85.04 10.7634C85.1128 10.8591 85.1655 10.9678 85.195 11.0834C85.2246 11.1989 85.2305 11.319 85.2123 11.4367C85.1941 11.5544 85.1523 11.6676 85.0892 11.7696C85.026 11.8716 84.9429 11.9605 84.8444 12.0313L77.2759 17.4652C77.1154 17.5803 76.9211 17.6422 76.7217 17.6418Z" fill="#02CF2F"/>
<path d="M76.7217 22.3967C76.5222 22.3971 76.328 22.3352 76.1674 22.2201L68.5989 16.7862C68.4 16.6432 68.2677 16.4294 68.231 16.1916C68.1943 15.9538 68.2563 15.7116 68.4033 15.5182C68.5503 15.3249 68.7703 15.1962 69.0148 15.1605C69.2594 15.1249 69.5085 15.1851 69.7074 15.328L76.7217 20.359L83.7359 15.328C83.9348 15.1851 84.1839 15.1249 84.4285 15.1605C84.673 15.1962 84.893 15.3249 85.04 15.5182C85.187 15.7116 85.249 15.9538 85.2123 16.1916C85.1756 16.4294 85.0433 16.6432 84.8444 16.7862L77.2759 22.2201C77.1154 22.3352 76.9211 22.3971 76.7217 22.3967Z" fill="#02CF2F"/>
</g>
<defs>
<clipPath id="clip0_75609_16137">
<rect width="17" height="12" fill="white" transform="translate(68.2217 10.3967)"/>
</clipPath>
</defs>
</svg>
