<svg width="145" height="65" viewBox="0 0 145 65" fill="none" xmlns="http://www.w3.org/2000/svg">
<g filter="url(#filter0_d_156_999)">
<rect x="4.85547" y="0.19165" width="136" height="56" rx="10" fill="white"/>
<path d="M40.6168 35.1917V20.6462H42.3782V33.6292H49.1396V35.1917H40.6168ZM56.0714 35.4189C55.0865 35.4189 54.2224 35.1845 53.479 34.7158C52.7404 34.247 52.1628 33.5913 51.7461 32.7485C51.3342 31.9057 51.1282 30.9208 51.1282 29.7939C51.1282 28.6576 51.3342 27.6656 51.7461 26.8181C52.1628 25.9705 52.7404 25.3124 53.479 24.8436C54.2224 24.3749 55.0865 24.1405 56.0714 24.1405C57.0562 24.1405 57.918 24.3749 58.6566 24.8436C59.4 25.3124 59.9776 25.9705 60.3896 26.8181C60.8062 27.6656 61.0146 28.6576 61.0146 29.7939C61.0146 30.9208 60.8062 31.9057 60.3896 32.7485C59.9776 33.5913 59.4 34.247 58.6566 34.7158C57.918 35.1845 57.0562 35.4189 56.0714 35.4189ZM56.0714 33.9132C56.8195 33.9132 57.435 33.7215 57.918 33.338C58.4009 32.9544 58.7584 32.4502 58.9904 31.8252C59.2224 31.2002 59.3384 30.5231 59.3384 29.7939C59.3384 29.0648 59.2224 28.3853 58.9904 27.7556C58.7584 27.1258 58.4009 26.6168 57.918 26.2286C57.435 25.8403 56.8195 25.6462 56.0714 25.6462C55.3233 25.6462 54.7077 25.8403 54.2248 26.2286C53.7418 26.6168 53.3844 27.1258 53.1523 27.7556C52.9203 28.3853 52.8043 29.0648 52.8043 29.7939C52.8043 30.5231 52.9203 31.2002 53.1523 31.8252C53.3844 32.4502 53.7418 32.9544 54.2248 33.338C54.7077 33.7215 55.3233 33.9132 56.0714 33.9132ZM65.6737 35.1917L62.3498 24.2826H64.1112L66.4691 32.6348H66.5827L68.9123 24.2826H70.7021L73.0032 32.6064H73.1168L75.4748 24.2826H77.2362L73.9123 35.1917H72.2646L69.8782 26.811H69.7077L67.3214 35.1917H65.6737Z" fill="black"/>
<path d="M96.8555 29.6978C96.6209 29.6982 96.3923 29.6233 96.2035 29.4843L87.3004 22.9145C87.1845 22.829 87.0867 22.7215 87.0124 22.5981C86.9382 22.4748 86.889 22.338 86.8676 22.1957C86.8245 21.9082 86.8974 21.6154 87.0703 21.3816C87.2432 21.1478 87.502 20.9923 87.7896 20.9491C88.0773 20.906 88.3704 20.9789 88.6043 21.1517L96.8555 27.2341L105.107 21.1517C105.222 21.0661 105.354 21.0042 105.494 20.9694C105.634 20.9347 105.779 20.9278 105.921 20.9491C106.064 20.9705 106.201 21.0197 106.324 21.0939C106.447 21.1681 106.555 21.2658 106.641 21.3816C106.726 21.4973 106.788 21.6288 106.823 21.7685C106.858 21.9082 106.865 22.0533 106.843 22.1957C106.822 22.338 106.773 22.4748 106.698 22.5981C106.624 22.7215 106.526 22.829 106.411 22.9145L97.5075 29.4843C97.3186 29.6233 97.0901 29.6982 96.8555 29.6978Z" fill="#7AE229"/>
<path d="M96.8555 35.4463C96.6209 35.4467 96.3923 35.3719 96.2035 35.2328L87.3004 28.6631C87.0664 28.4903 86.9108 28.2317 86.8676 27.9442C86.8245 27.6567 86.8974 27.3639 87.0703 27.1301C87.2432 26.8964 87.502 26.7408 87.7896 26.6977C88.0773 26.6546 88.3704 26.7274 88.6043 26.9002L96.8555 32.9827L105.107 26.9002C105.341 26.7274 105.634 26.6546 105.921 26.6977C106.209 26.7408 106.468 26.8964 106.641 27.1301C106.814 27.3639 106.886 27.6567 106.843 27.9442C106.8 28.2317 106.645 28.4903 106.411 28.6631L97.5075 35.2328C97.3186 35.3719 97.0901 35.4467 96.8555 35.4463Z" fill="#7AE229"/>
</g>
<defs>
<filter id="filter0_d_156_999" x="0.855469" y="0.19165" width="144" height="64" filterUnits="userSpaceOnUse" color-interpolation-filters="sRGB">
<feFlood flood-opacity="0" result="BackgroundImageFix"/>
<feColorMatrix in="SourceAlpha" type="matrix" values="0 0 0 0 0 0 0 0 0 0 0 0 0 0 0 0 0 0 127 0" result="hardAlpha"/>
<feOffset dy="4"/>
<feGaussianBlur stdDeviation="2"/>
<feComposite in2="hardAlpha" operator="out"/>
<feColorMatrix type="matrix" values="0 0 0 0 0 0 0 0 0 0 0 0 0 0 0 0 0 0 0.25 0"/>
<feBlend mode="normal" in2="BackgroundImageFix" result="effect1_dropShadow_156_999"/>
<feBlend mode="normal" in="SourceGraphic" in2="effect1_dropShadow_156_999" result="shape"/>
</filter>
</defs>
</svg>
