<svg width="145" height="65" viewBox="0 0 145 65" fill="none" xmlns="http://www.w3.org/2000/svg">
<g filter="url(#filter0_d_156_970)">
<rect x="4.85547" y="0.19165" width="136" height="56" rx="10" fill="white"/>
<path d="M22.6168 20.6462H24.7191L29.6623 32.7201H29.8327L34.7759 20.6462H36.8782V35.1917H35.2305V24.1405H35.0884L30.543 35.1917H28.9521L24.4066 24.1405H24.2646V35.1917H22.6168V20.6462ZM44.7564 35.4189C43.7053 35.4189 42.7985 35.1869 42.0362 34.7229C41.2786 34.2542 40.6939 33.6007 40.282 32.7627C39.8748 31.9199 39.6712 30.9398 39.6712 29.8223C39.6712 28.7049 39.8748 27.7201 40.282 26.8678C40.6939 26.0108 41.2668 25.3432 42.0007 24.8649C42.7393 24.382 43.6011 24.1405 44.5859 24.1405C45.1541 24.1405 45.7152 24.2352 46.2692 24.4246C46.8232 24.614 47.3274 24.9218 47.782 25.3479C48.2365 25.7693 48.5987 26.328 48.8686 27.024C49.1385 27.7201 49.2734 28.5771 49.2734 29.5951V30.3053H40.8643V28.8564H47.5689C47.5689 28.2409 47.4458 27.6916 47.1996 27.2087C46.9581 26.7257 46.6125 26.3446 46.1626 26.0652C45.7176 25.7859 45.192 25.6462 44.5859 25.6462C43.9183 25.6462 43.3407 25.8119 42.853 26.1434C42.37 26.4701 41.9983 26.8962 41.7379 27.4218C41.4775 27.9473 41.3473 28.5108 41.3473 29.1121V30.078C41.3473 30.9019 41.4893 31.6003 41.7734 32.1732C42.0623 32.7414 42.4624 33.1746 42.9737 33.4729C43.4851 33.7665 44.0793 33.9132 44.7564 33.9132C45.1967 33.9132 45.5945 33.8517 45.9496 33.7286C46.3094 33.6007 46.6196 33.4113 46.88 33.1604C47.1404 32.9047 47.3416 32.5875 47.4837 32.2087L49.103 32.6632C48.9325 33.2125 48.6461 33.6954 48.2436 34.1121C47.8411 34.524 47.344 34.846 46.7521 35.078C46.1603 35.3053 45.495 35.4189 44.7564 35.4189ZM55.9425 35.4189C55.0334 35.4189 54.2308 35.1893 53.5348 34.73C52.8388 34.266 52.2943 33.6126 51.9013 32.7698C51.5083 31.9222 51.3118 30.9208 51.3118 29.7655C51.3118 28.6197 51.5083 27.6254 51.9013 26.7826C52.2943 25.9398 52.8411 25.2887 53.5419 24.8294C54.2427 24.3702 55.0523 24.1405 55.9709 24.1405C56.6811 24.1405 57.2422 24.2589 57.6541 24.4956C58.0708 24.7276 58.388 24.9928 58.6058 25.2911C58.8284 25.5846 59.0012 25.8261 59.1243 26.0155H59.2663V20.6462H60.9425V35.1917H59.3232V33.5155H59.1243C59.0012 33.7144 58.826 33.9653 58.5987 34.2684C58.3714 34.5667 58.0471 34.8342 57.6257 35.0709C57.2043 35.3029 56.6432 35.4189 55.9425 35.4189ZM56.1697 33.9132C56.8421 33.9132 57.4103 33.7381 57.8743 33.3877C58.3383 33.0326 58.6911 32.5425 58.9325 31.9175C59.174 31.2878 59.2947 30.561 59.2947 29.7371C59.2947 28.9227 59.1764 28.2101 58.9396 27.5993C58.7029 26.9838 58.3525 26.5056 57.8885 26.1647C57.4245 25.819 56.8516 25.6462 56.1697 25.6462C55.4595 25.6462 54.8677 25.8285 54.3942 26.1931C53.9254 26.5529 53.5727 27.043 53.3359 27.6632C53.1039 28.2788 52.9879 28.9701 52.9879 29.7371C52.9879 30.5136 53.1063 31.2191 53.343 31.8536C53.5845 32.4833 53.9396 32.9852 54.4084 33.3593C54.8819 33.7286 55.469 33.9132 56.1697 33.9132ZM64.245 35.1917V24.2826H65.9212V35.1917H64.245ZM65.0973 22.4644C64.7706 22.4644 64.4889 22.3531 64.2521 22.1306C64.0201 21.908 63.9041 21.6405 63.9041 21.328C63.9041 21.0155 64.0201 20.748 64.2521 20.5255C64.4889 20.3029 64.7706 20.1917 65.0973 20.1917C65.424 20.1917 65.7034 20.3029 65.9354 20.5255C66.1721 20.748 66.2905 21.0155 66.2905 21.328C66.2905 21.6405 66.1721 21.908 65.9354 22.1306C65.7034 22.3531 65.424 22.4644 65.0973 22.4644ZM75.8661 30.7314V24.2826H77.5423V35.1917H75.8661V33.3451H75.7525C75.4968 33.899 75.0991 34.3702 74.5593 34.7584C74.0195 35.1419 73.3377 35.3337 72.5138 35.3337C71.832 35.3337 71.226 35.1845 70.6957 34.8863C70.1654 34.5832 69.7487 34.1287 69.4457 33.5226C69.1426 32.9118 68.9911 32.1424 68.9911 31.2144V24.2826H70.6673V31.1007C70.6673 31.8962 70.8898 32.5307 71.3349 33.0042C71.7847 33.4776 72.3576 33.7144 73.0536 33.7144C73.4703 33.7144 73.8941 33.6078 74.3249 33.3948C74.7605 33.1817 75.1251 32.855 75.4187 32.4147C75.717 31.9743 75.8661 31.4132 75.8661 30.7314ZM80.6122 35.1917V24.2826H82.2315V25.9871H82.3736C82.6009 25.4047 82.9678 24.9525 83.4744 24.6306C83.9811 24.3039 84.5895 24.1405 85.2997 24.1405C86.0194 24.1405 86.6184 24.3039 87.0966 24.6306C87.5795 24.9525 87.956 25.4047 88.2259 25.9871H88.3395C88.6188 25.4237 89.0379 24.9762 89.5966 24.6448C90.1553 24.3086 90.8253 24.1405 91.6065 24.1405C92.5819 24.1405 93.3797 24.4459 94 25.0567C94.6203 25.6628 94.9304 26.6074 94.9304 27.8905V35.1917H93.2543V27.8905C93.2543 27.0856 93.0341 26.5103 92.5938 26.1647C92.1534 25.819 91.6349 25.6462 91.0384 25.6462C90.2713 25.6462 89.6771 25.8782 89.2557 26.3422C88.8343 26.8015 88.6236 27.3839 88.6236 28.0894V35.1917H86.919V27.7201C86.919 27.0998 86.7178 26.6003 86.3153 26.2215C85.9129 25.838 85.3944 25.6462 84.7599 25.6462C84.3243 25.6462 83.9171 25.7622 83.5384 25.9942C83.1643 26.2262 82.8613 26.5482 82.6293 26.9601C82.402 27.3673 82.2884 27.8384 82.2884 28.3735V35.1917H80.6122Z" fill="black"/>
<g clip-path="url(#clip0_156_970)">
<path d="M123.76 31.9169H105.951C105.661 31.9169 105.382 31.8006 105.176 31.5936C104.971 31.3866 104.855 31.1058 104.855 30.8131C104.855 30.5203 104.971 30.2396 105.176 30.0325C105.382 29.8255 105.661 29.7092 105.951 29.7092H123.76C124.05 29.7092 124.329 29.8255 124.534 30.0325C124.74 30.2396 124.855 30.5203 124.855 30.8131C124.855 31.1058 124.74 31.3866 124.534 31.5936C124.329 31.8006 124.05 31.9169 123.76 31.9169Z" fill="#FFA800"/>
<path d="M123.76 26.6738H105.951C105.661 26.6738 105.382 26.5575 105.176 26.3505C104.971 26.1434 104.855 25.8627 104.855 25.5699C104.855 25.2772 104.971 24.9964 105.176 24.7894C105.382 24.5824 105.661 24.4661 105.951 24.4661H123.76C124.05 24.4661 124.329 24.5824 124.534 24.7894C124.74 24.9964 124.855 25.2772 124.855 25.5699C124.855 25.8627 124.74 26.1434 124.534 26.3505C124.329 26.5575 124.05 26.6738 123.76 26.6738Z" fill="#FFA800"/>
</g>
</g>
<defs>
<filter id="filter0_d_156_970" x="0.855469" y="0.19165" width="144" height="64" filterUnits="userSpaceOnUse" color-interpolation-filters="sRGB">
<feFlood flood-opacity="0" result="BackgroundImageFix"/>
<feColorMatrix in="SourceAlpha" type="matrix" values="0 0 0 0 0 0 0 0 0 0 0 0 0 0 0 0 0 0 127 0" result="hardAlpha"/>
<feOffset dy="4"/>
<feGaussianBlur stdDeviation="2"/>
<feComposite in2="hardAlpha" operator="out"/>
<feColorMatrix type="matrix" values="0 0 0 0 0 0 0 0 0 0 0 0 0 0 0 0 0 0 0.25 0"/>
<feBlend mode="normal" in2="BackgroundImageFix" result="effect1_dropShadow_156_970"/>
<feBlend mode="normal" in="SourceGraphic" in2="effect1_dropShadow_156_970" result="shape"/>
</filter>
<clipPath id="clip0_156_970">
<rect width="20" height="7.45098" fill="white" transform="translate(104.855 24.4661)"/>
</clipPath>
</defs>
</svg>
