<svg width="21" height="9" viewBox="0 0 21 9" fill="none" xmlns="http://www.w3.org/2000/svg">
<path d="M19.0862 8.12222H1.27802C0.987371 8.12222 0.708627 8.00592 0.503108 7.79891C0.297588 7.5919 0.182129 7.31113 0.182129 7.01837C0.182129 6.72561 0.297588 6.44484 0.503108 6.23783C0.708627 6.03082 0.987371 5.91452 1.27802 5.91452H19.0862C19.3769 5.91452 19.6556 6.03082 19.8612 6.23783C20.0667 6.44484 20.1821 6.72561 20.1821 7.01837C20.1821 7.31113 20.0667 7.5919 19.8612 7.79891C19.6556 8.00592 19.3769 8.12222 19.0862 8.12222Z" fill="white"/>
<path d="M19.0862 2.87893H1.27802C0.987371 2.87893 0.708627 2.76263 0.503108 2.55562C0.297588 2.34861 0.182129 2.06784 0.182129 1.77508C0.182129 1.48232 0.297588 1.20156 0.503108 0.994544C0.708627 0.787532 0.987371 0.671234 1.27802 0.671234L19.0862 0.671234C19.3769 0.671234 19.6556 0.787532 19.8612 0.994544C20.0667 1.20156 20.1821 1.48232 20.1821 1.77508C20.1821 2.06784 20.0667 2.34861 19.8612 2.55562C19.6556 2.76263 19.3769 2.87893 19.0862 2.87893Z" fill="white"/>
</svg>
