<svg width="140" height="33" viewBox="0 0 140 33" fill="none" xmlns="http://www.w3.org/2000/svg">
<path d="M19.983 8.85127H22.0853L27.0285 20.9251H27.199L32.1421 8.85127H34.2444V23.3967H32.5967V12.3456H32.4546L27.9092 23.3967H26.3183L21.7728 12.3456H21.6308V23.3967H19.983V8.85127ZM42.1226 23.624C41.0715 23.624 40.1647 23.392 39.4024 22.928C38.6449 22.4592 38.0601 21.8058 37.6482 20.9678C37.241 20.1249 37.0374 19.1448 37.0374 18.0274C37.0374 16.91 37.241 15.9251 37.6482 15.0729C38.0601 14.2159 38.633 13.5482 39.3669 13.07C40.1056 12.5871 40.9673 12.3456 41.9521 12.3456C42.5203 12.3456 43.0814 12.4403 43.6354 12.6297C44.1894 12.8191 44.6936 13.1268 45.1482 13.553C45.6027 13.9744 45.9649 14.5331 46.2348 15.2291C46.5047 15.9251 46.6396 16.7821 46.6396 17.8001V18.5104H38.2306V17.0615H44.9351C44.9351 16.446 44.812 15.8967 44.5658 15.4138C44.3243 14.9308 43.9787 14.5497 43.5289 14.2703C43.0838 13.991 42.5582 13.8513 41.9521 13.8513C41.2845 13.8513 40.7069 14.017 40.2192 14.3484C39.7362 14.6751 39.3646 15.1013 39.1041 15.6268C38.8437 16.1524 38.7135 16.7159 38.7135 17.3172V18.2831C38.7135 19.107 38.8556 19.8053 39.1396 20.3783C39.4285 20.9464 39.8286 21.3797 40.3399 21.678C40.8513 21.9715 41.4455 22.1183 42.1226 22.1183C42.5629 22.1183 42.9607 22.0568 43.3158 21.9337C43.6756 21.8058 43.9858 21.6164 44.2462 21.3655C44.5066 21.1098 44.7078 20.7926 44.8499 20.4138L46.4692 20.8683C46.2987 21.4176 46.0123 21.9005 45.6098 22.3172C45.2074 22.7291 44.7102 23.0511 44.1183 23.2831C43.5265 23.5104 42.8612 23.624 42.1226 23.624ZM53.3087 23.624C52.3996 23.624 51.597 23.3944 50.901 22.9351C50.205 22.4711 49.6605 21.8177 49.2675 20.9749C48.8745 20.1273 48.678 19.1259 48.678 17.9706C48.678 16.8248 48.8745 15.8304 49.2675 14.9876C49.6605 14.1448 50.2074 13.4938 50.9081 13.0345C51.6089 12.5752 52.4185 12.3456 53.3371 12.3456C54.0473 12.3456 54.6084 12.464 55.0203 12.7007C55.437 12.9327 55.7542 13.1979 55.972 13.4962C56.1946 13.7897 56.3674 14.0312 56.4905 14.2206H56.6325V8.85127H58.3087V23.3967H56.6894V21.7206H56.4905C56.3674 21.9195 56.1922 22.1704 55.9649 22.4734C55.7377 22.7717 55.4133 23.0392 54.9919 23.276C54.5705 23.508 54.0094 23.624 53.3087 23.624ZM53.536 22.1183C54.2083 22.1183 54.7765 21.9431 55.2405 21.5928C55.7045 21.2376 56.0573 20.7476 56.2987 20.1226C56.5402 19.4928 56.661 18.766 56.661 17.9422C56.661 17.1278 56.5426 16.4152 56.3058 15.8044C56.0691 15.1889 55.7187 14.7106 55.2547 14.3697C54.7907 14.0241 54.2178 13.8513 53.536 13.8513C52.8257 13.8513 52.2339 14.0336 51.7604 14.3981C51.2916 14.758 50.9389 15.2481 50.7021 15.8683C50.4701 16.4838 50.3541 17.1751 50.3541 17.9422C50.3541 18.7187 50.4725 19.4242 50.7093 20.0587C50.9507 20.6884 51.3058 21.1903 51.7746 21.5643C52.2481 21.9337 52.8352 22.1183 53.536 22.1183ZM61.6112 23.3967V12.4876H63.2874V23.3967H61.6112ZM62.4635 10.6695C62.1368 10.6695 61.8551 10.5582 61.6183 10.3356C61.3863 10.1131 61.2703 9.84559 61.2703 9.53309C61.2703 9.22059 61.3863 8.95307 61.6183 8.73053C61.8551 8.508 62.1368 8.39673 62.4635 8.39673C62.7902 8.39673 63.0696 8.508 63.3016 8.73053C63.5383 8.95307 63.6567 9.22059 63.6567 9.53309C63.6567 9.84559 63.5383 10.1131 63.3016 10.3356C63.0696 10.5582 62.7902 10.6695 62.4635 10.6695ZM73.2323 18.9365V12.4876H74.9085V23.3967H73.2323V21.5501H73.1187C72.863 22.1041 72.4653 22.5752 71.9255 22.9635C71.3857 23.347 70.7039 23.5388 69.8801 23.5388C69.1982 23.5388 68.5922 23.3896 68.0619 23.0913C67.5316 22.7883 67.1149 22.3338 66.8119 21.7277C66.5088 21.1169 66.3573 20.3475 66.3573 19.4195V12.4876H68.0335V19.3058C68.0335 20.1013 68.256 20.7357 68.7011 21.2092C69.1509 21.6827 69.7238 21.9195 70.4198 21.9195C70.8365 21.9195 71.2603 21.8129 71.6911 21.5999C72.1267 21.3868 72.4913 21.0601 72.7849 20.6197C73.0832 20.1794 73.2323 19.6183 73.2323 18.9365ZM77.9784 23.3967V12.4876H79.5977V14.1922H79.7398C79.9671 13.6098 80.334 13.1576 80.8406 12.8356C81.3473 12.5089 81.9557 12.3456 82.6659 12.3456C83.3856 12.3456 83.9846 12.5089 84.4628 12.8356C84.9458 13.1576 85.3222 13.6098 85.5921 14.1922H85.7057C85.9851 13.6287 86.4041 13.1813 86.9628 12.8499C87.5215 12.5137 88.1915 12.3456 88.9727 12.3456C89.9481 12.3456 90.7459 12.651 91.3662 13.2618C91.9865 13.8678 92.2966 14.8124 92.2966 16.0956V23.3967H90.6205V16.0956C90.6205 15.2907 90.4003 14.7154 89.96 14.3697C89.5196 14.0241 89.0012 13.8513 88.4046 13.8513C87.6375 13.8513 87.0433 14.0833 86.6219 14.5473C86.2005 15.0066 85.9898 15.589 85.9898 16.2945V23.3967H84.2852V15.9251C84.2852 15.3049 84.084 14.8053 83.6816 14.4266C83.2791 14.043 82.7606 13.8513 82.1262 13.8513C81.6905 13.8513 81.2834 13.9673 80.9046 14.1993C80.5305 14.4313 80.2275 14.7533 79.9955 15.1652C79.7682 15.5724 79.6546 16.0435 79.6546 16.5785V23.3967H77.9784Z" fill="black"/>
<g clip-path="url(#clip0_75609_16130)">
<path d="M120.29 19.5634H105.153C104.906 19.5634 104.669 19.4646 104.495 19.2886C104.32 19.1127 104.222 18.874 104.222 18.6252C104.222 18.3763 104.32 18.1377 104.495 17.9617C104.669 17.7857 104.906 17.6869 105.153 17.6869H120.29C120.537 17.6869 120.774 17.7857 120.949 17.9617C121.124 18.1377 121.222 18.3763 121.222 18.6252C121.222 18.874 121.124 19.1127 120.949 19.2886C120.774 19.4646 120.537 19.5634 120.29 19.5634Z" fill="#FF7A00"/>
<path d="M120.29 15.1066H105.153C104.906 15.1066 104.669 15.0078 104.495 14.8318C104.32 14.6559 104.222 14.4172 104.222 14.1684C104.222 13.9195 104.32 13.6809 104.495 13.5049C104.669 13.329 104.906 13.2301 105.153 13.2301H120.29C120.537 13.2301 120.774 13.329 120.949 13.5049C121.124 13.6809 121.222 13.9195 121.222 14.1684C121.222 14.4172 121.124 14.6559 120.949 14.8318C120.774 15.0078 120.537 15.1066 120.29 15.1066Z" fill="#FF7A00"/>
</g>
<defs>
<clipPath id="clip0_75609_16130">
<rect width="17" height="6.33333" fill="white" transform="translate(104.222 13.2301)"/>
</clipPath>
</defs>
</svg>
