<svg width="21" height="9" viewBox="0 0 21 9" fill="none" xmlns="http://www.w3.org/2000/svg">
<path d="M19.0862 8.122H1.27802C0.987371 8.122 0.708627 8.00571 0.503108 7.79869C0.297588 7.59168 0.182129 7.31091 0.182129 7.01816C0.182129 6.7254 0.297588 6.44463 0.503108 6.23762C0.708627 6.0306 0.987371 5.91431 1.27802 5.91431H19.0862C19.3769 5.91431 19.6556 6.0306 19.8612 6.23762C20.0667 6.44463 20.1821 6.7254 20.1821 7.01816C20.1821 7.31091 20.0667 7.59168 19.8612 7.79869C19.6556 8.00571 19.3769 8.122 19.0862 8.122Z" fill="#FFA800"/>
<path d="M19.0862 2.87884H1.27802C0.987371 2.87884 0.708627 2.76254 0.503108 2.55553C0.297588 2.34852 0.182129 2.06775 0.182129 1.77499C0.182129 1.48223 0.297588 1.20146 0.503108 0.994452C0.708627 0.787441 0.987371 0.671143 1.27802 0.671143L19.0862 0.671143C19.3769 0.671143 19.6556 0.787441 19.8612 0.994452C20.0667 1.20146 20.1821 1.48223 20.1821 1.77499C20.1821 2.06775 20.0667 2.34852 19.8612 2.55553C19.6556 2.76254 19.3769 2.87884 19.0862 2.87884Z" fill="#FFA800"/>
</svg>
