<svg width="140" height="33" viewBox="0 0 140 33" fill="none" xmlns="http://www.w3.org/2000/svg">
<path d="M20.4435 8.85127H22.5458L27.4889 20.9251H27.6594L32.6026 8.85127H34.7049V23.3967H33.0571V12.3456H32.9151L28.3696 23.3967H26.7787L22.2333 12.3456H22.0912V23.3967H20.4435V8.85127ZM42.5831 23.624C41.5319 23.624 40.6252 23.392 39.8629 22.928C39.1053 22.4592 38.5206 21.8058 38.1086 20.9678C37.7014 20.1249 37.4978 19.1448 37.4978 18.0274C37.4978 16.91 37.7014 15.9251 38.1086 15.0729C38.5206 14.2159 39.0935 13.5482 39.8274 13.07C40.566 12.5871 41.4277 12.3456 42.4126 12.3456C42.9808 12.3456 43.5419 12.4403 44.0958 12.6297C44.6498 12.8191 45.1541 13.1268 45.6086 13.553C46.0632 13.9744 46.4254 14.5331 46.6953 15.2291C46.9652 15.9251 47.1001 16.7821 47.1001 17.8001V18.5104H38.691V17.0615H45.3956C45.3956 16.446 45.2724 15.8967 45.0262 15.4138C44.7848 14.9308 44.4391 14.5497 43.9893 14.2703C43.5442 13.991 43.0187 13.8513 42.4126 13.8513C41.745 13.8513 41.1673 14.017 40.6796 14.3484C40.1967 14.6751 39.825 15.1013 39.5646 15.6268C39.3042 16.1524 39.174 16.7159 39.174 17.3172V18.2831C39.174 19.107 39.316 19.8053 39.6001 20.3783C39.8889 20.9464 40.289 21.3797 40.8004 21.678C41.3117 21.9715 41.906 22.1183 42.5831 22.1183C43.0234 22.1183 43.4211 22.0568 43.7762 21.9337C44.1361 21.8058 44.4462 21.6164 44.7066 21.3655C44.967 21.1098 45.1683 20.7926 45.3103 20.4138L46.9296 20.8683C46.7592 21.4176 46.4727 21.9005 46.0703 22.3172C45.6678 22.7291 45.1706 23.0511 44.5788 23.2831C43.9869 23.5104 43.3217 23.624 42.5831 23.624ZM53.7691 23.624C52.86 23.624 52.0575 23.3944 51.3615 22.9351C50.6654 22.4711 50.1209 21.8177 49.7279 20.9749C49.3349 20.1273 49.1384 19.1259 49.1384 17.9706C49.1384 16.8248 49.3349 15.8304 49.7279 14.9876C50.1209 14.1448 50.6678 13.4938 51.3686 13.0345C52.0693 12.5752 52.879 12.3456 53.7975 12.3456C54.5078 12.3456 55.0688 12.464 55.4808 12.7007C55.8974 12.9327 56.2147 13.1979 56.4325 13.4962C56.655 13.7897 56.8278 14.0312 56.951 14.2206H57.093V8.85127H58.7691V23.3967H57.1498V21.7206H56.951C56.8278 21.9195 56.6527 22.1704 56.4254 22.4734C56.1981 22.7717 55.8738 23.0392 55.4524 23.276C55.031 23.508 54.4699 23.624 53.7691 23.624ZM53.9964 22.1183C54.6688 22.1183 55.2369 21.9431 55.701 21.5928C56.165 21.2376 56.5177 20.7476 56.7592 20.1226C57.0007 19.4928 57.1214 18.766 57.1214 17.9422C57.1214 17.1278 57.003 16.4152 56.7663 15.8044C56.5295 15.1889 56.1792 14.7106 55.7152 14.3697C55.2511 14.0241 54.6782 13.8513 53.9964 13.8513C53.2862 13.8513 52.6943 14.0336 52.2208 14.3981C51.7521 14.758 51.3993 15.2481 51.1626 15.8683C50.9306 16.4838 50.8146 17.1751 50.8146 17.9422C50.8146 18.7187 50.933 19.4242 51.1697 20.0587C51.4112 20.6884 51.7663 21.1903 52.235 21.5643C52.7085 21.9337 53.2956 22.1183 53.9964 22.1183ZM62.0717 23.3967V12.4876H63.7478V23.3967H62.0717ZM62.924 10.6695C62.5973 10.6695 62.3155 10.5582 62.0788 10.3356C61.8468 10.1131 61.7308 9.84559 61.7308 9.53309C61.7308 9.22059 61.8468 8.95307 62.0788 8.73053C62.3155 8.508 62.5973 8.39673 62.924 8.39673C63.2507 8.39673 63.53 8.508 63.762 8.73053C63.9988 8.95307 64.1171 9.22059 64.1171 9.53309C64.1171 9.84559 63.9988 10.1131 63.762 10.3356C63.53 10.5582 63.2507 10.6695 62.924 10.6695ZM73.6928 18.9365V12.4876H75.3689V23.3967H73.6928V21.5501H73.5791C73.3235 22.1041 72.9257 22.5752 72.386 22.9635C71.8462 23.347 71.1644 23.5388 70.3405 23.5388C69.6587 23.5388 69.0526 23.3896 68.5223 23.0913C67.992 22.7883 67.5754 22.3338 67.2723 21.7277C66.9693 21.1169 66.8178 20.3475 66.8178 19.4195V12.4876H68.4939V19.3058C68.4939 20.1013 68.7165 20.7357 69.1615 21.2092C69.6113 21.6827 70.1843 21.9195 70.8803 21.9195C71.2969 21.9195 71.7207 21.8129 72.1516 21.5999C72.5872 21.3868 72.9518 21.0601 73.2453 20.6197C73.5436 20.1794 73.6928 19.6183 73.6928 18.9365ZM78.4389 23.3967V12.4876H80.0582V14.1922H80.2002C80.4275 13.6098 80.7945 13.1576 81.3011 12.8356C81.8077 12.5089 82.4161 12.3456 83.1264 12.3456C83.8461 12.3456 84.445 12.5089 84.9233 12.8356C85.4062 13.1576 85.7826 13.6098 86.0525 14.1922H86.1661C86.4455 13.6287 86.8645 13.1813 87.4233 12.8499C87.982 12.5137 88.6519 12.3456 89.4332 12.3456C90.4086 12.3456 91.2064 12.651 91.8267 13.2618C92.4469 13.8678 92.7571 14.8124 92.7571 16.0956V23.3967H91.0809V16.0956C91.0809 15.2907 90.8608 14.7154 90.4204 14.3697C89.9801 14.0241 89.4616 13.8513 88.865 13.8513C88.098 13.8513 87.5037 14.0833 87.0823 14.5473C86.6609 15.0066 86.4502 15.589 86.4502 16.2945V23.3967H84.7457V15.9251C84.7457 15.3049 84.5445 14.8053 84.142 14.4266C83.7395 14.043 83.2211 13.8513 82.5866 13.8513C82.151 13.8513 81.7438 13.9673 81.365 14.1993C80.991 14.4313 80.6879 14.7533 80.4559 15.1652C80.2286 15.5724 80.115 16.0435 80.115 16.5785V23.3967H78.4389Z" fill="black"/>
<g clip-path="url(#clip0_75609_16259)">
<path d="M120.751 19.5634H105.614C105.367 19.5634 105.13 19.4645 104.955 19.2886C104.78 19.1126 104.682 18.8739 104.682 18.6251C104.682 18.3763 104.78 18.1376 104.955 17.9616C105.13 17.7857 105.367 17.6868 105.614 17.6868H120.751C120.998 17.6868 121.235 17.7857 121.409 17.9616C121.584 18.1376 121.682 18.3763 121.682 18.6251C121.682 18.8739 121.584 19.1126 121.409 19.2886C121.235 19.4645 120.998 19.5634 120.751 19.5634Z" fill="#FF7A00"/>
<path d="M120.751 15.1066H105.614C105.367 15.1066 105.13 15.0077 104.955 14.8318C104.78 14.6558 104.682 14.4172 104.682 14.1683C104.682 13.9195 104.78 13.6808 104.955 13.5049C105.13 13.3289 105.367 13.23 105.614 13.23H120.751C120.998 13.23 121.235 13.3289 121.409 13.5049C121.584 13.6808 121.682 13.9195 121.682 14.1683C121.682 14.4172 121.584 14.6558 121.409 14.8318C121.235 15.0077 120.998 15.1066 120.751 15.1066Z" fill="#FF7A00"/>
</g>
<defs>
<clipPath id="clip0_75609_16259">
<rect width="17" height="6.33333" fill="white" transform="translate(104.682 13.23)"/>
</clipPath>
</defs>
</svg>
