<svg width="21" height="15" viewBox="0 0 21 15" fill="none" xmlns="http://www.w3.org/2000/svg">
<g clip-path="url(#clip0_172389_1322)">
<path d="M18.9199 14.6516C18.6853 14.652 18.4567 14.5772 18.2678 14.4381L10.0158 8.35491L1.76372 14.4381C1.64787 14.5236 1.51628 14.5856 1.37648 14.6203C1.23668 14.6551 1.0914 14.662 0.94893 14.6406C0.806462 14.6193 0.669598 14.5701 0.546153 14.4959C0.422708 14.4217 0.315099 14.3239 0.22947 14.2081C0.143841 14.0923 0.0818687 13.9609 0.0470921 13.8212C0.0123154 13.6815 0.00541523 13.5363 0.0267854 13.3939C0.0699445 13.1064 0.225635 12.8478 0.459607 12.675L9.36372 6.10452C9.55241 5.96493 9.78099 5.88959 10.0158 5.88959C10.2506 5.88959 10.4791 5.96493 10.6678 6.10452L19.5719 12.675C19.7579 12.8119 19.8957 13.004 19.9659 13.2239C20.036 13.4438 20.0349 13.6802 19.9626 13.8994C19.8903 14.1186 19.7505 14.3093 19.5633 14.4444C19.376 14.5795 19.1508 14.652 18.9199 14.6516Z" fill="#FF3D00"/>
<path d="M18.9199 8.9025C18.6853 8.90291 18.4567 8.82806 18.2678 8.68896L10.0158 2.6058L1.76372 8.68896C1.52975 8.86177 1.23666 8.93462 0.948935 8.8915C0.661208 8.84837 0.40241 8.69279 0.229474 8.459C0.0565387 8.2252 -0.0163691 7.93233 0.02679 7.64481C0.069949 7.3573 0.22564 7.09869 0.459611 6.92588L9.36372 0.355408C9.55242 0.215817 9.781 0.140472 10.0158 0.140472C10.2506 0.140472 10.4791 0.215817 10.6678 0.355408L19.5719 6.92588C19.7579 7.0628 19.8957 7.25491 19.9659 7.47479C20.036 7.69467 20.0349 7.93108 19.9626 8.15026C19.8903 8.36944 19.7505 8.5602 19.5633 8.69529C19.376 8.83038 19.1508 8.9029 18.9199 8.9025Z" fill="#FF3D00"/>
</g>
<defs>
<clipPath id="clip0_172389_1322">
<rect width="20" height="14.5098" fill="white" transform="translate(0.015625 0.141815)"/>
</clipPath>
</defs>
</svg>
