<svg width="145" height="65" viewBox="0 0 145 65" fill="none" xmlns="http://www.w3.org/2000/svg">
<g filter="url(#filter0_d_156_1117)">
<rect x="4.85547" y="0.19165" width="136" height="56" rx="10" fill="white"/>
<path d="M37.6623 20.6462H39.4237V30.2769C39.4237 31.2712 39.1893 32.159 38.7205 32.9402C38.2565 33.7167 37.6007 34.3299 36.7532 34.7797C35.9057 35.2248 34.9113 35.4473 33.7702 35.4473C32.6291 35.4473 31.6348 35.2248 30.7873 34.7797C29.9397 34.3299 29.2816 33.7167 28.8129 32.9402C28.3488 32.159 28.1168 31.2712 28.1168 30.2769V20.6462H29.8782V30.1348C29.8782 30.8451 30.0344 31.4772 30.3469 32.0311C30.6594 32.5804 31.1045 33.0136 31.6822 33.3309C32.2646 33.6434 32.9606 33.7996 33.7702 33.7996C34.5799 33.7996 35.2759 33.6434 35.8583 33.3309C36.4407 33.0136 36.8858 32.5804 37.1935 32.0311C37.506 31.4772 37.6623 30.8451 37.6623 30.1348V20.6462ZM42.7138 35.1917V24.2826H44.3331V25.9303H44.4467C44.6456 25.3905 45.0054 24.9525 45.5263 24.6164C46.0471 24.2802 46.6342 24.1121 47.2876 24.1121C47.4107 24.1121 47.5646 24.1145 47.7493 24.1192C47.9339 24.1239 48.0736 24.131 48.1683 24.1405V25.8451C48.1115 25.8309 47.9813 25.8095 47.7777 25.7811C47.5788 25.748 47.3681 25.7314 47.1456 25.7314C46.6153 25.7314 46.1418 25.8427 45.7251 26.0652C45.3132 26.283 44.9865 26.5861 44.745 26.9743C44.5083 27.3578 44.3899 27.7958 44.3899 28.2882V35.1917H42.7138ZM54.2266 39.5098C53.4169 39.5098 52.7209 39.4057 52.1385 39.1973C51.5561 38.9937 51.0708 38.7238 50.6825 38.3877C50.299 38.0562 49.9936 37.7011 49.7663 37.3223L51.1016 36.3848C51.2531 36.5837 51.4448 36.811 51.6768 37.0667C51.9089 37.3271 52.2261 37.552 52.6286 37.7414C53.0357 37.9355 53.5684 38.0326 54.2266 38.0326C55.1072 38.0326 55.834 37.8195 56.407 37.3934C56.9799 36.9672 57.2663 36.2996 57.2663 35.3905V33.1746H57.1243C57.0012 33.3735 56.826 33.6197 56.5987 33.9132C56.3762 34.2021 56.0542 34.4601 55.6328 34.6874C55.2161 34.9099 54.6527 35.0212 53.9425 35.0212C53.0618 35.0212 52.2711 34.8129 51.5703 34.3962C50.8743 33.9795 50.3227 33.3735 49.9155 32.578C49.513 31.7826 49.3118 30.8167 49.3118 29.6803C49.3118 28.5629 49.5083 27.5899 49.9013 26.7613C50.2943 25.9279 50.8411 25.284 51.5419 24.8294C52.2427 24.3702 53.0523 24.1405 53.9709 24.1405C54.6811 24.1405 55.2446 24.2589 55.6612 24.4956C56.0826 24.7276 56.4046 24.9928 56.6271 25.2911C56.8544 25.5846 57.0296 25.8261 57.1527 26.0155H57.3232V24.2826H58.9425V35.5042C58.9425 36.4417 58.7294 37.204 58.3033 37.7911C57.8819 38.3829 57.3137 38.8162 56.5987 39.0908C55.8885 39.3702 55.0978 39.5098 54.2266 39.5098ZM54.1697 33.5155C54.8421 33.5155 55.4103 33.3616 55.8743 33.0539C56.3383 32.7461 56.6911 32.3034 56.9325 31.7257C57.174 31.1481 57.2947 30.4568 57.2947 29.6519C57.2947 28.8659 57.1764 28.1722 56.9396 27.5709C56.7029 26.9696 56.3525 26.4985 55.8885 26.1576C55.4245 25.8166 54.8516 25.6462 54.1697 25.6462C53.4595 25.6462 52.8677 25.8261 52.3942 26.186C51.9254 26.5458 51.5727 27.0288 51.3359 27.6348C51.1039 28.2409 50.9879 28.9132 50.9879 29.6519C50.9879 30.4095 51.1063 31.0794 51.343 31.6618C51.5845 32.2395 51.9396 32.694 52.4084 33.0255C52.8819 33.3522 53.469 33.5155 54.1697 33.5155ZM66.5845 35.4189C65.5334 35.4189 64.6267 35.1869 63.8643 34.7229C63.1068 34.2542 62.522 33.6007 62.1101 32.7627C61.7029 31.9199 61.4993 30.9398 61.4993 29.8223C61.4993 28.7049 61.7029 27.7201 62.1101 26.8678C62.522 26.0108 63.0949 25.3432 63.8288 24.8649C64.5675 24.382 65.4292 24.1405 66.4141 24.1405C66.9822 24.1405 67.5433 24.2352 68.0973 24.4246C68.6513 24.614 69.1555 24.9218 69.6101 25.3479C70.0646 25.7693 70.4268 26.328 70.6967 27.024C70.9666 27.7201 71.1016 28.5771 71.1016 29.5951V30.3053H62.6925V28.8564H69.397C69.397 28.2409 69.2739 27.6916 69.0277 27.2087C68.7862 26.7257 68.4406 26.3446 67.9908 26.0652C67.5457 25.7859 67.0201 25.6462 66.4141 25.6462C65.7464 25.6462 65.1688 25.8119 64.6811 26.1434C64.1982 26.4701 63.8265 26.8962 63.5661 27.4218C63.3056 27.9473 63.1754 28.5108 63.1754 29.1121V30.078C63.1754 30.9019 63.3175 31.6003 63.6016 32.1732C63.8904 32.7414 64.2905 33.1746 64.8018 33.4729C65.3132 33.7665 65.9074 33.9132 66.5845 33.9132C67.0249 33.9132 67.4226 33.8517 67.7777 33.7286C68.1375 33.6007 68.4477 33.4113 68.7081 33.1604C68.9685 32.9047 69.1697 32.5875 69.3118 32.2087L70.9311 32.6632C70.7607 33.2125 70.4742 33.6954 70.0717 34.1121C69.6693 34.524 69.1721 34.846 68.5803 35.078C67.9884 35.3053 67.3232 35.4189 66.5845 35.4189ZM75.3274 28.6292V35.1917H73.6513V24.2826H75.2706V25.9871H75.4126C75.6683 25.4331 76.0566 24.9881 76.5774 24.6519C77.0982 24.311 77.7706 24.1405 78.5945 24.1405C79.3331 24.1405 79.9794 24.292 80.5334 24.5951C81.0874 24.8934 81.5182 25.3479 81.826 25.9587C82.1338 26.5648 82.2876 27.3318 82.2876 28.2598V35.1917H80.6115V28.3735C80.6115 27.5165 80.389 26.8488 79.9439 26.3706C79.4988 25.8877 78.888 25.6462 78.1115 25.6462C77.5765 25.6462 77.0982 25.7622 76.6768 25.9942C76.2602 26.2262 75.9311 26.5648 75.6896 27.0098C75.4482 27.4549 75.3274 27.9947 75.3274 28.6292ZM90.0948 24.2826V25.703H84.4414V24.2826H90.0948ZM86.0891 21.6689H87.7653V32.0667C87.7653 32.5401 87.8339 32.8952 87.9712 33.132C88.1133 33.364 88.2932 33.5202 88.511 33.6007C88.7335 33.6765 88.9679 33.7144 89.2141 33.7144C89.3988 33.7144 89.5503 33.7049 89.6687 33.686C89.7871 33.6623 89.8817 33.6434 89.9528 33.6292L90.2937 35.1348C90.18 35.1774 90.0214 35.2201 89.8178 35.2627C89.6142 35.31 89.3562 35.3337 89.0437 35.3337C88.5702 35.3337 88.1062 35.2319 87.6516 35.0283C87.2018 34.8247 86.8278 34.5146 86.5295 34.0979C86.2359 33.6812 86.0891 33.1557 86.0891 32.5212V21.6689Z" fill="black"/>
<g clip-path="url(#clip0_156_1117)">
<path d="M118.26 35.4466C118.025 35.447 117.797 35.3722 117.608 35.2331L109.356 29.1499L101.104 35.2331C100.988 35.3186 100.856 35.3806 100.716 35.4153C100.577 35.4501 100.431 35.457 100.289 35.4356C100.146 35.4142 100.009 35.3651 99.886 35.2908C99.7626 35.2166 99.6549 35.1189 99.5693 35.0031C99.4837 34.8873 99.4217 34.7558 99.3869 34.6161C99.3522 34.4764 99.3453 34.3313 99.3666 34.1889C99.4098 33.9014 99.5655 33.6428 99.7995 33.47L108.704 26.8995C108.892 26.7599 109.121 26.6846 109.356 26.6846C109.59 26.6846 109.819 26.7599 110.008 26.8995L118.912 33.47C119.098 33.6069 119.236 33.799 119.306 34.0189C119.376 34.2388 119.375 34.4752 119.302 34.6944C119.23 34.9135 119.09 35.1043 118.903 35.2394C118.716 35.3745 118.491 35.447 118.26 35.4466Z" fill="#FF3D00"/>
<path d="M118.26 29.6975C118.025 29.6979 117.797 29.623 117.608 29.4839L109.356 23.4007L101.104 29.4839C100.87 29.6567 100.577 29.7296 100.289 29.6865C100.001 29.6433 99.7423 29.4877 99.5693 29.2539C99.3964 29.0201 99.3235 28.7273 99.3666 28.4398C99.4098 28.1523 99.5655 27.8936 99.7995 27.7208L108.704 21.1504C108.892 21.0108 109.121 20.9354 109.356 20.9354C109.59 20.9354 109.819 21.0108 110.008 21.1504L118.912 27.7208C119.098 27.8578 119.236 28.0499 119.306 28.2697C119.376 28.4896 119.375 28.726 119.302 28.9452C119.23 29.1644 119.09 29.3551 118.903 29.4902C118.716 29.6253 118.491 29.6979 118.26 29.6975Z" fill="#FF3D00"/>
</g>
</g>
<defs>
<filter id="filter0_d_156_1117" x="0.855469" y="0.19165" width="144" height="64" filterUnits="userSpaceOnUse" color-interpolation-filters="sRGB">
<feFlood flood-opacity="0" result="BackgroundImageFix"/>
<feColorMatrix in="SourceAlpha" type="matrix" values="0 0 0 0 0 0 0 0 0 0 0 0 0 0 0 0 0 0 127 0" result="hardAlpha"/>
<feOffset dy="4"/>
<feGaussianBlur stdDeviation="2"/>
<feComposite in2="hardAlpha" operator="out"/>
<feColorMatrix type="matrix" values="0 0 0 0 0 0 0 0 0 0 0 0 0 0 0 0 0 0 0.25 0"/>
<feBlend mode="normal" in2="BackgroundImageFix" result="effect1_dropShadow_156_1117"/>
<feBlend mode="normal" in="SourceGraphic" in2="effect1_dropShadow_156_1117" result="shape"/>
</filter>
<clipPath id="clip0_156_1117">
<rect width="20" height="14.5098" fill="white" transform="translate(99.3555 20.9368)"/>
</clipPath>
</defs>
</svg>
