<svg width="21" height="15" viewBox="0 0 21 15" fill="none" xmlns="http://www.w3.org/2000/svg">
<g clip-path="url(#clip0_172389_2771)">
<path d="M18.9199 14.6514C18.6853 14.6518 18.4567 14.577 18.2678 14.4379L10.0158 8.35473L1.76372 14.4379C1.64787 14.5235 1.51628 14.5854 1.37648 14.6201C1.23668 14.6549 1.0914 14.6618 0.94893 14.6404C0.806462 14.6191 0.669598 14.5699 0.546153 14.4957C0.422708 14.4215 0.315099 14.3237 0.22947 14.2079C0.143841 14.0922 0.0818687 13.9607 0.0470921 13.821C0.0123154 13.6813 0.00541523 13.5361 0.0267854 13.3937C0.0699445 13.1062 0.225635 12.8476 0.459607 12.6748L9.36372 6.10434C9.55241 5.96475 9.78099 5.8894 10.0158 5.8894C10.2506 5.8894 10.4791 5.96475 10.6678 6.10434L19.5719 12.6748C19.7579 12.8117 19.8957 13.0038 19.9659 13.2237C20.036 13.4436 20.0349 13.68 19.9626 13.8992C19.8903 14.1184 19.7505 14.3091 19.5633 14.4442C19.376 14.5793 19.1508 14.6518 18.9199 14.6514Z" fill="white"/>
<path d="M18.9199 8.90241C18.6853 8.90282 18.4567 8.82796 18.2678 8.68887L10.0158 2.60571L1.76372 8.68887C1.52975 8.86168 1.23666 8.93453 0.948935 8.89141C0.661208 8.84828 0.40241 8.6927 0.229474 8.4589C0.0565387 8.22511 -0.0163691 7.93224 0.02679 7.64472C0.069949 7.35721 0.22564 7.0986 0.459611 6.92579L9.36372 0.355317C9.55242 0.215726 9.781 0.140381 10.0158 0.140381C10.2506 0.140381 10.4791 0.215726 10.6678 0.355317L19.5719 6.92579C19.7579 7.06271 19.8957 7.25482 19.9659 7.4747C20.036 7.69458 20.0349 7.93099 19.9626 8.15017C19.8903 8.36935 19.7505 8.5601 19.5633 8.6952C19.376 8.83029 19.1508 8.90281 18.9199 8.90241Z" fill="white"/>
</g>
<defs>
<clipPath id="clip0_172389_2771">
<rect width="20" height="14.5098" fill="white" transform="translate(0.015625 0.141846)"/>
</clipPath>
</defs>
</svg>
