<svg width="129" height="33" viewBox="0 0 129 33" fill="none" xmlns="http://www.w3.org/2000/svg">
<path d="M29.5285 8.85127H31.2899V18.482C31.2899 19.4763 31.0555 20.3641 30.5867 21.1453C30.1227 21.9218 29.4669 22.535 28.6194 22.9848C27.7719 23.4299 26.7776 23.6524 25.6365 23.6524C24.4954 23.6524 23.501 23.4299 22.6535 22.9848C21.806 22.535 21.1478 21.9218 20.6791 21.1453C20.2151 20.3641 19.983 19.4763 19.983 18.482V8.85127H21.7444V18.3399C21.7444 19.0501 21.9007 19.6822 22.2132 20.2362C22.5257 20.7855 22.9707 21.2187 23.5484 21.5359C24.1308 21.8484 24.8268 22.0047 25.6365 22.0047C26.4461 22.0047 27.1421 21.8484 27.7245 21.5359C28.3069 21.2187 28.752 20.7855 29.0597 20.2362C29.3722 19.6822 29.5285 19.0501 29.5285 18.3399V8.85127ZM34.58 23.3967V12.4876H36.1993V14.1354H36.3129C36.5118 13.5956 36.8717 13.1576 37.3925 12.8214C37.9133 12.4853 38.5004 12.3172 39.1539 12.3172C39.277 12.3172 39.4308 12.3195 39.6155 12.3243C39.8002 12.329 39.9398 12.3361 40.0345 12.3456V14.0501C39.9777 14.0359 39.8475 14.0146 39.6439 13.9862C39.445 13.9531 39.2343 13.9365 39.0118 13.9365C38.4815 13.9365 38.008 14.0478 37.5914 14.2703C37.1794 14.4881 36.8527 14.7911 36.6112 15.1794C36.3745 15.5629 36.2561 16.0009 36.2561 16.4933V23.3967H34.58ZM46.0928 27.7149C45.2831 27.7149 44.5871 27.6107 44.0047 27.4024C43.4223 27.1988 42.937 26.9289 42.5487 26.5928C42.1652 26.2613 41.8598 25.9062 41.6325 25.5274L42.9678 24.5899C43.1193 24.7888 43.311 25.016 43.5431 25.2717C43.7751 25.5321 44.0923 25.7571 44.4948 25.9464C44.902 26.1406 45.4346 26.2376 46.0928 26.2376C46.9735 26.2376 47.7003 26.0246 48.2732 25.5984C48.8461 25.1723 49.1325 24.5047 49.1325 23.5956V21.3797H48.9905C48.8674 21.5785 48.6922 21.8248 48.4649 22.1183C48.2424 22.4071 47.9204 22.6652 47.499 22.8925C47.0824 23.115 46.5189 23.2263 45.8087 23.2263C44.928 23.2263 44.1373 23.0179 43.4365 22.6013C42.7405 22.1846 42.1889 21.5785 41.7817 20.7831C41.3792 19.9876 41.178 19.0217 41.178 17.8854C41.178 16.7679 41.3745 15.7949 41.7675 14.9663C42.1605 14.133 42.7074 13.4891 43.4081 13.0345C44.1089 12.5752 44.9185 12.3456 45.8371 12.3456C46.5473 12.3456 47.1108 12.464 47.5274 12.7007C47.9488 12.9327 48.2708 13.1979 48.4933 13.4962C48.7206 13.7897 48.8958 14.0312 49.0189 14.2206H49.1894V12.4876H50.8087V23.7092C50.8087 24.6467 50.5956 25.409 50.1695 25.9962C49.7481 26.588 49.1799 27.0213 48.4649 27.2959C47.7547 27.5752 46.964 27.7149 46.0928 27.7149ZM46.036 21.7206C46.7083 21.7206 47.2765 21.5667 47.7405 21.2589C48.2045 20.9512 48.5573 20.5085 48.7987 19.9308C49.0402 19.3532 49.161 18.6619 49.161 17.857C49.161 17.071 49.0426 16.3773 48.8058 15.776C48.5691 15.1747 48.2187 14.7035 47.7547 14.3626C47.2907 14.0217 46.7178 13.8513 46.036 13.8513C45.3257 13.8513 44.7339 14.0312 44.2604 14.391C43.7916 14.7509 43.4389 15.2338 43.2021 15.8399C42.9701 16.446 42.8541 17.1183 42.8541 17.857C42.8541 18.6145 42.9725 19.2845 43.2093 19.8669C43.4507 20.4446 43.8058 20.8991 44.2746 21.2305C44.7481 21.5572 45.3352 21.7206 46.036 21.7206ZM58.4507 23.624C57.3996 23.624 56.4929 23.392 55.7306 22.928C54.973 22.4592 54.3882 21.8058 53.9763 20.9678C53.5691 20.1249 53.3655 19.1448 53.3655 18.0274C53.3655 16.91 53.5691 15.9251 53.9763 15.0729C54.3882 14.2159 54.9611 13.5482 55.695 13.07C56.4337 12.5871 57.2954 12.3456 58.2803 12.3456C58.8485 12.3456 59.4095 12.4403 59.9635 12.6297C60.5175 12.8191 61.0218 13.1268 61.4763 13.553C61.9308 13.9744 62.2931 14.5331 62.5629 15.2291C62.8328 15.9251 62.9678 16.7821 62.9678 17.8001V18.5104H54.5587V17.0615H61.2632C61.2632 16.446 61.1401 15.8967 60.8939 15.4138C60.6524 14.9308 60.3068 14.5497 59.857 14.2703C59.4119 13.991 58.8863 13.8513 58.2803 13.8513C57.6127 13.8513 57.035 14.017 56.5473 14.3484C56.0644 14.6751 55.6927 15.1013 55.4323 15.6268C55.1718 16.1524 55.0416 16.7159 55.0416 17.3172V18.2831C55.0416 19.107 55.1837 19.8053 55.4678 20.3783C55.7566 20.9464 56.1567 21.3797 56.6681 21.678C57.1794 21.9715 57.7736 22.1183 58.4507 22.1183C58.8911 22.1183 59.2888 22.0568 59.6439 21.9337C60.0038 21.8058 60.3139 21.6164 60.5743 21.3655C60.8347 21.1098 61.036 20.7926 61.178 20.4138L62.7973 20.8683C62.6269 21.4176 62.3404 21.9005 61.9379 22.3172C61.5355 22.7291 61.0383 23.0511 60.4465 23.2831C59.8546 23.5104 59.1894 23.624 58.4507 23.624ZM67.1936 16.8342V23.3967H65.5175V12.4876H67.1368V14.1922H67.2789C67.5345 13.6382 67.9228 13.1931 68.4436 12.857C68.9645 12.516 69.6368 12.3456 70.4607 12.3456C71.1993 12.3456 71.8456 12.4971 72.3996 12.8001C72.9536 13.0984 73.3844 13.553 73.6922 14.1638C74 14.7698 74.1539 15.5369 74.1539 16.4649V23.3967H72.4777V16.5785C72.4777 15.7215 72.2552 15.0539 71.8101 14.5757C71.365 14.0928 70.7542 13.8513 69.9777 13.8513C69.4427 13.8513 68.9645 13.9673 68.5431 14.1993C68.1264 14.4313 67.7973 14.7698 67.5558 15.2149C67.3144 15.66 67.1936 16.1998 67.1936 16.8342ZM81.961 12.4876V13.9081H76.3076V12.4876H81.961ZM77.9553 9.874H79.6315V20.2717C79.6315 20.7452 79.7001 21.1003 79.8374 21.3371C79.9795 21.5691 80.1594 21.7253 80.3772 21.8058C80.5998 21.8816 80.8341 21.9195 81.0803 21.9195C81.265 21.9195 81.4165 21.91 81.5349 21.891C81.6533 21.8674 81.748 21.8484 81.819 21.8342L82.1599 23.3399C82.0463 23.3825 81.8876 23.4251 81.684 23.4678C81.4804 23.5151 81.2224 23.5388 80.9099 23.5388C80.4364 23.5388 79.9724 23.437 79.5178 23.2334C79.068 23.0298 78.694 22.7196 78.3957 22.303C78.1021 21.8863 77.9553 21.3607 77.9553 20.7263V9.874Z" fill="black"/>
<g clip-path="url(#clip0_75609_16144)">
<path d="M101.722 15.1516C101.921 15.1513 102.115 15.2132 102.276 15.3282L109.844 20.7622C109.943 20.8329 110.026 20.9219 110.089 21.0239C110.152 21.1259 110.194 21.239 110.212 21.3568C110.249 21.5945 110.187 21.8367 110.04 22.0301C109.893 22.2235 109.673 22.3521 109.429 22.3878C109.184 22.4235 108.935 22.3632 108.736 22.2203L101.722 17.1893L94.7075 22.2203C94.609 22.2911 94.4971 22.3423 94.3783 22.371C94.2595 22.3998 94.136 22.4055 94.0149 22.3878C93.8938 22.3701 93.7775 22.3295 93.6725 22.2681C93.5676 22.2067 93.4761 22.1258 93.4033 22.0301C93.3306 21.9344 93.2779 21.8256 93.2483 21.7101C93.2188 21.5946 93.2129 21.4745 93.2311 21.3567C93.2492 21.239 93.2911 21.1259 93.3542 21.0239C93.4173 20.9219 93.5005 20.8329 93.599 20.7622L101.167 15.3282C101.328 15.2132 101.522 15.1513 101.722 15.1516Z" fill="#FF0000"/>
<path d="M101.722 10.3967C101.921 10.3964 102.115 10.4583 102.276 10.5733L109.844 16.0073C110.043 16.1502 110.176 16.3641 110.212 16.6019C110.249 16.8397 110.187 17.0819 110.04 17.2752C109.893 17.4686 109.673 17.5972 109.429 17.6329C109.184 17.6686 108.935 17.6083 108.736 17.4654L101.722 12.4345L94.7075 17.4654C94.5086 17.6083 94.2594 17.6686 94.0149 17.6329C93.7703 17.5972 93.5503 17.4686 93.4033 17.2752C93.2563 17.0819 93.1944 16.8396 93.2311 16.6019C93.2677 16.3641 93.4001 16.1502 93.599 16.0073L101.167 10.5733C101.328 10.4583 101.522 10.3964 101.722 10.3967Z" fill="#FF0000"/>
</g>
<defs>
<clipPath id="clip0_75609_16144">
<rect width="17" height="12" fill="white" transform="translate(110.222 22.3967) rotate(-180)"/>
</clipPath>
</defs>
</svg>
